<?xml version="1.0" encoding="UTF-8" standalone="no"?>
<!DOCTYPE svg PUBLIC "-//W3C//DTD SVG 1.1//EN" "http://www.w3.org/Graphics/SVG/1.1/DTD/svg11.dtd">
<!-- Created with Vectornator (http://vectornator.io/) -->
<svg height="100%" stroke-miterlimit="10" style="fill-rule:nonzero;clip-rule:evenodd;stroke-linecap:round;stroke-linejoin:round;" version="1.1" viewBox="0 0 700 600" width="100%" xml:space="preserve" xmlns="http://www.w3.org/2000/svg" xmlns:xlink="http://www.w3.org/1999/xlink">
<defs/>
<clipPath id="ArtboardFrame">
<rect height="600" width="700" x="0" y="0"/>
</clipPath>
<g clip-path="url(#ArtboardFrame)" id="Untitled">
<path d="M8 5C10 2 10 2 5.67 3.6C1.8 4.9 1.8 5.1 5.67 6.4C10 8 10 8 8 5Z" fill="#ffffff" fill-rule="evenodd" opacity="1" stroke="none"/>
<path d="M2 5C0 2 0 2 4.33 3.6C8.2 4.9 8.2 5.1 4.33 6.4C0 8 0 8 2 5Z" fill="#ffffff" fill-rule="evenodd" opacity="1" stroke="none"/>
<path d="M352 748.004L100 748.004" fill="none" fill-rule="evenodd" opacity="1" stroke="#ffffff" stroke-linecap="round" stroke-linejoin="round" stroke-opacity="0.9" stroke-width="0"/>
<path d="M8 5C10 2 10 2 5.67 3.6C1.8 4.9 1.8 5.1 5.67 6.4C10 8 10 8 8 5Z" fill="#ffffff" fill-rule="evenodd" opacity="1" stroke="none"/>
<path d="M2 5C0 2 0 2 4.33 3.6C8.2 4.9 8.2 5.1 4.33 6.4C0 8 0 8 2 5Z" fill="#ffffff" fill-rule="evenodd" opacity="1" stroke="none"/>
<path d="M558.929 26.0001L756.929 26.0001L864.929 26.0001" fill="none" fill-rule="evenodd" opacity="1" stroke="#ffffff" stroke-linecap="round" stroke-linejoin="round" stroke-opacity="0.9" stroke-width="0"/>
<path d="M180.929 260.001L162.929 278.002L162.929 458.003L36.929 512.003L0.929033 620.004" fill="none" fill-rule="evenodd" opacity="1" stroke="#d05dce" stroke-linecap="round" stroke-linejoin="round" stroke-opacity="0.9" stroke-width="6"/>
<path d="M36.929 620.004L72.929 512.003L198.929 458.003L306.929 404.002L306.929 278.002L324.929 260.001L360.929 224.001L396.929 188.001L432.929 152.001L468.929 116.001L504.929 80.0004L576.929 8" fill="none" fill-rule="evenodd" opacity="1" stroke="#168000" stroke-linecap="round" stroke-linejoin="round" stroke-opacity="0.9" stroke-width="6"/>
<path d="M108.929 260.001L144.929 260.001L180.929 260.001L216.929 260.001L252.929 260.001L288.929 260.001L324.929 260.001L396.929 332.002L432.929 332.002L468.929 332.002L504.929 332.002L540.929 332.002L576.929 332.002L612.929 332.002L648.929 332.002L684.929 332.002L720.929 332.002" fill="none" fill-rule="evenodd" opacity="1" stroke="#006080" stroke-linecap="round" stroke-linejoin="round" stroke-opacity="0.9" stroke-width="6"/>
<path d="M324.929 8L324.929 44.8268L324.929 81.6536L324.929 118.48L324.929 155.307L324.929 192.134L324.929 228.961L324.929 265.788L324.929 505.162L324.929 597.229" fill="none" fill-rule="evenodd" opacity="1" stroke="#ffbf00" stroke-linecap="round" stroke-linejoin="round" stroke-opacity="0.9" stroke-width="6"/>
<path d="M172.929 260.001C172.929 255.583 176.511 252.001 180.929 252.001C185.347 252.001 188.929 255.583 188.929 260.001C188.929 264.42 185.347 268.001 180.929 268.001C176.511 268.001 172.929 264.42 172.929 260.001Z" fill="#000000" fill-rule="evenodd" opacity="1" stroke="#ffffff" stroke-linecap="butt" stroke-linejoin="miter" stroke-width="3"/>
<path d="M28.929 512.003C28.929 507.585 32.5108 504.003 36.929 504.003C41.3473 504.003 44.929 507.585 44.929 512.003C44.929 516.421 41.3473 520.003 36.929 520.003C32.5108 520.003 28.929 516.421 28.929 512.003Z" fill="#d05dce" fill-rule="evenodd" opacity="1" stroke="#ffffff" stroke-linecap="butt" stroke-linejoin="miter" stroke-width="3"/>
<path d="M316.929 260.001C316.929 255.583 320.511 252.001 324.929 252.001C329.347 252.001 332.929 255.583 332.929 260.001C332.929 264.42 329.347 268.001 324.929 268.001C320.511 268.001 316.929 264.42 316.929 260.001Z" fill="#168000" fill-rule="evenodd" opacity="1" stroke="#ffffff" stroke-linecap="butt" stroke-linejoin="miter" stroke-width="3"/>
<path d="M352.929 224.001C352.929 219.583 356.511 216.001 360.929 216.001C365.347 216.001 368.929 219.583 368.929 224.001C368.929 228.42 365.347 232.001 360.929 232.001C356.511 232.001 352.929 228.42 352.929 224.001Z" fill="#168000" fill-rule="evenodd" opacity="1" stroke="#ffffff" stroke-linecap="butt" stroke-linejoin="miter" stroke-width="3"/>
<path d="M388.929 188.001C388.929 183.583 392.511 180.001 396.929 180.001C401.347 180.001 404.929 183.583 404.929 188.001C404.929 192.419 401.347 196.001 396.929 196.001C392.511 196.001 388.929 192.419 388.929 188.001Z" fill="#168000" fill-rule="evenodd" opacity="1" stroke="#ffffff" stroke-linecap="butt" stroke-linejoin="miter" stroke-width="3"/>
<path d="M424.929 152.001C424.929 147.583 428.511 144.001 432.929 144.001C437.347 144.001 440.929 147.583 440.929 152.001C440.929 156.419 437.347 160.001 432.929 160.001C428.511 160.001 424.929 156.419 424.929 152.001Z" fill="#168000" fill-rule="evenodd" opacity="1" stroke="#ffffff" stroke-linecap="butt" stroke-linejoin="miter" stroke-width="3"/>
<path d="M460.929 116.001C460.929 111.582 464.511 108.001 468.929 108.001C473.347 108.001 476.929 111.582 476.929 116.001C476.929 120.419 473.347 124.001 468.929 124.001C464.511 124.001 460.929 120.419 460.929 116.001Z" fill="#168000" fill-rule="evenodd" opacity="1" stroke="#ffffff" stroke-linecap="butt" stroke-linejoin="miter" stroke-width="3"/>
<path d="M496.929 80.0004C496.929 75.5821 500.511 72.0004 504.929 72.0004C509.347 72.0004 512.929 75.5821 512.929 80.0004C512.929 84.4187 509.347 88.0004 504.929 88.0004C500.511 88.0004 496.929 84.4187 496.929 80.0004Z" fill="#168000" fill-rule="evenodd" opacity="1" stroke="#ffffff" stroke-linecap="butt" stroke-linejoin="miter" stroke-width="3"/>
<path d="M100.929 260.001C100.929 255.583 104.511 252.001 108.929 252.001C113.347 252.001 116.929 255.583 116.929 260.001C116.929 264.42 113.347 268.001 108.929 268.001C104.511 268.001 100.929 264.42 100.929 260.001Z" fill="#006080" fill-rule="evenodd" opacity="1" stroke="#ffffff" stroke-linecap="butt" stroke-linejoin="miter" stroke-width="3"/>
<path d="M136.929 260.001C136.929 255.583 140.511 252.001 144.929 252.001C149.347 252.001 152.929 255.583 152.929 260.001C152.929 264.42 149.347 268.001 144.929 268.001C140.511 268.001 136.929 264.42 136.929 260.001Z" fill="#006080" fill-rule="evenodd" opacity="1" stroke="#ffffff" stroke-linecap="butt" stroke-linejoin="miter" stroke-width="3"/>
<path d="M172.929 260.001C172.929 255.583 176.511 252.001 180.929 252.001C185.347 252.001 188.929 255.583 188.929 260.001C188.929 264.42 185.347 268.001 180.929 268.001C176.511 268.001 172.929 264.42 172.929 260.001Z" fill="#000000" fill-rule="evenodd" opacity="1" stroke="#ffffff" stroke-linecap="butt" stroke-linejoin="miter" stroke-width="3"/>
<path d="M208.929 260.001C208.929 255.583 212.511 252.001 216.929 252.001C221.347 252.001 224.929 255.583 224.929 260.001C224.929 264.42 221.347 268.001 216.929 268.001C212.511 268.001 208.929 264.42 208.929 260.001Z" fill="#006080" fill-rule="evenodd" opacity="1" stroke="#ffffff" stroke-linecap="butt" stroke-linejoin="miter" stroke-width="3"/>
<path d="M244.929 260.001C244.929 255.583 248.511 252.001 252.929 252.001C257.347 252.001 260.929 255.583 260.929 260.001C260.929 264.42 257.347 268.001 252.929 268.001C248.511 268.001 244.929 264.42 244.929 260.001Z" fill="#006080" fill-rule="evenodd" opacity="1" stroke="#ffffff" stroke-linecap="butt" stroke-linejoin="miter" stroke-width="3"/>
<path d="M280.929 260.001C280.929 255.583 284.511 252.001 288.929 252.001C293.347 252.001 296.929 255.583 296.929 260.001C296.929 264.42 293.347 268.001 288.929 268.001C284.511 268.001 280.929 264.42 280.929 260.001Z" fill="#006080" fill-rule="evenodd" opacity="1" stroke="#ffffff" stroke-linecap="butt" stroke-linejoin="miter" stroke-width="3"/>
<path d="M316.929 260.001C316.929 255.583 320.511 252.001 324.929 252.001C329.347 252.001 332.929 255.583 332.929 260.001C332.929 264.42 329.347 268.001 324.929 268.001C320.511 268.001 316.929 264.42 316.929 260.001Z" fill="#000000" fill-rule="evenodd" opacity="1" stroke="#ffffff" stroke-linecap="butt" stroke-linejoin="miter" stroke-width="3"/>
<path d="M388.929 332.002C388.929 327.584 392.511 324.002 396.929 324.002C401.347 324.002 404.929 327.584 404.929 332.002C404.929 336.42 401.347 340.002 396.929 340.002C392.511 340.002 388.929 336.42 388.929 332.002Z" fill="#006080" fill-rule="evenodd" opacity="1" stroke="#ffffff" stroke-linecap="butt" stroke-linejoin="miter" stroke-width="3"/>
<path d="M424.929 332.002C424.929 327.584 428.511 324.002 432.929 324.002C437.347 324.002 440.929 327.584 440.929 332.002C440.929 336.42 437.347 340.002 432.929 340.002C428.511 340.002 424.929 336.42 424.929 332.002Z" fill="#006080" fill-rule="evenodd" opacity="1" stroke="#ffffff" stroke-linecap="butt" stroke-linejoin="miter" stroke-width="3"/>
<path d="M460.929 332.002C460.929 327.584 464.511 324.002 468.929 324.002C473.347 324.002 476.929 327.584 476.929 332.002C476.929 336.42 473.347 340.002 468.929 340.002C464.511 340.002 460.929 336.42 460.929 332.002Z" fill="#006080" fill-rule="evenodd" opacity="1" stroke="#ffffff" stroke-linecap="butt" stroke-linejoin="miter" stroke-width="3"/>
<path d="M496.929 332.002C496.929 327.584 500.511 324.002 504.929 324.002C509.347 324.002 512.929 327.584 512.929 332.002C512.929 336.42 509.347 340.002 504.929 340.002C500.511 340.002 496.929 336.42 496.929 332.002Z" fill="#006080" fill-rule="evenodd" opacity="1" stroke="#ffffff" stroke-linecap="butt" stroke-linejoin="miter" stroke-width="3"/>
<path d="M532.929 332.002C532.929 327.584 536.511 324.002 540.929 324.002C545.347 324.002 548.929 327.584 548.929 332.002C548.929 336.42 545.347 340.002 540.929 340.002C536.511 340.002 532.929 336.42 532.929 332.002Z" fill="#006080" fill-rule="evenodd" opacity="1" stroke="#ffffff" stroke-linecap="butt" stroke-linejoin="miter" stroke-width="3"/>
<path d="M568.929 332.002C568.929 327.584 572.511 324.002 576.929 324.002C581.347 324.002 584.929 327.584 584.929 332.002C584.929 336.42 581.347 340.002 576.929 340.002C572.511 340.002 568.929 336.42 568.929 332.002Z" fill="#006080" fill-rule="evenodd" opacity="1" stroke="#ffffff" stroke-linecap="butt" stroke-linejoin="miter" stroke-width="3"/>
<path d="M604.929 332.002C604.929 327.584 608.511 324.002 612.929 324.002C617.347 324.002 620.929 327.584 620.929 332.002C620.929 336.42 617.347 340.002 612.929 340.002C608.511 340.002 604.929 336.42 604.929 332.002Z" fill="#006080" fill-rule="evenodd" opacity="1" stroke="#ffffff" stroke-linecap="butt" stroke-linejoin="miter" stroke-width="3"/>
<path d="M640.929 332.002C640.929 327.584 644.511 324.002 648.929 324.002C653.347 324.002 656.929 327.584 656.929 332.002C656.929 336.42 653.347 340.002 648.929 340.002C644.511 340.002 640.929 336.42 640.929 332.002Z" fill="#006080" fill-rule="evenodd" opacity="1" stroke="#ffffff" stroke-linecap="butt" stroke-linejoin="miter" stroke-width="3"/>
<path d="M676.929 332.002C676.929 327.584 680.511 324.002 684.929 324.002C689.347 324.002 692.929 327.584 692.929 332.002C692.929 336.42 689.347 340.002 684.929 340.002C680.511 340.002 676.929 336.42 676.929 332.002Z" fill="#006080" fill-rule="evenodd" opacity="1" stroke="#ffffff" stroke-linecap="butt" stroke-linejoin="miter" stroke-width="3"/>
<path d="M1028 424.002C1028 419.584 1031.58 416.002 1036 416.002C1040.42 416.002 1044 419.584 1044 424.002C1044 428.42 1040.42 432.002 1036 432.002C1031.58 432.002 1028 428.42 1028 424.002Z" fill="#006080" fill-rule="evenodd" opacity="1" stroke="#ffffff" stroke-linecap="butt" stroke-linejoin="miter" stroke-width="3"/>
<path d="M316.929 8C316.929 3.58172 320.511 0 324.929 0C329.347 0 332.929 3.58172 332.929 8C332.929 12.4183 329.347 16 324.929 16C320.511 16 316.929 12.4183 316.929 8Z" fill="#ffbf00" fill-rule="evenodd" opacity="1" stroke="#ffffff" stroke-linecap="butt" stroke-linejoin="miter" stroke-width="3"/>
<path d="M316.929 44.0002C316.929 39.5819 320.511 36.0002 324.929 36.0002C329.347 36.0002 332.929 39.5819 332.929 44.0002C332.929 48.4185 329.347 52.0002 324.929 52.0002C320.511 52.0002 316.929 48.4185 316.929 44.0002Z" fill="#ffbf00" fill-rule="evenodd" opacity="1" stroke="#ffffff" stroke-linecap="butt" stroke-linejoin="miter" stroke-width="3"/>
<path d="M316.929 80.0004C316.929 75.5821 320.511 72.0004 324.929 72.0004C329.347 72.0004 332.929 75.5821 332.929 80.0004C332.929 84.4187 329.347 88.0004 324.929 88.0004C320.511 88.0004 316.929 84.4187 316.929 80.0004Z" fill="#ffbf00" fill-rule="evenodd" opacity="1" stroke="#ffffff" stroke-linecap="butt" stroke-linejoin="miter" stroke-width="3"/>
<path d="M316.929 116.001C316.929 111.582 320.511 108.001 324.929 108.001C329.347 108.001 332.929 111.582 332.929 116.001C332.929 120.419 329.347 124.001 324.929 124.001C320.511 124.001 316.929 120.419 316.929 116.001Z" fill="#ffbf00" fill-rule="evenodd" opacity="1" stroke="#ffffff" stroke-linecap="butt" stroke-linejoin="miter" stroke-width="3"/>
<path d="M316.929 152.001C316.929 147.583 320.511 144.001 324.929 144.001C329.347 144.001 332.929 147.583 332.929 152.001C332.929 156.419 329.347 160.001 324.929 160.001C320.511 160.001 316.929 156.419 316.929 152.001Z" fill="#ffbf00" fill-rule="evenodd" opacity="1" stroke="#ffffff" stroke-linecap="butt" stroke-linejoin="miter" stroke-width="3"/>
<path d="M316.929 188.001C316.929 183.583 320.511 180.001 324.929 180.001C329.347 180.001 332.929 183.583 332.929 188.001C332.929 192.419 329.347 196.001 324.929 196.001C320.511 196.001 316.929 192.419 316.929 188.001Z" fill="#ffbf00" fill-rule="evenodd" opacity="1" stroke="#ffffff" stroke-linecap="butt" stroke-linejoin="miter" stroke-width="3"/>
<path d="M316.929 224.001C316.929 219.583 320.511 216.001 324.929 216.001C329.347 216.001 332.929 219.583 332.929 224.001C332.929 228.42 329.347 232.001 324.929 232.001C320.511 232.001 316.929 228.42 316.929 224.001Z" fill="#ffbf00" fill-rule="evenodd" opacity="1" stroke="#ffffff" stroke-linecap="butt" stroke-linejoin="miter" stroke-width="3"/>
<path d="M316.929 260.001C316.929 255.583 320.511 252.001 324.929 252.001C329.347 252.001 332.929 255.583 332.929 260.001C332.929 264.42 329.347 268.001 324.929 268.001C320.511 268.001 316.929 264.42 316.929 260.001Z" fill="#000000" fill-rule="evenodd" opacity="1" stroke="#ffffff" stroke-linecap="butt" stroke-linejoin="miter" stroke-width="3"/>
<path d="M316.929 494.003C316.929 489.585 320.511 486.003 324.929 486.003C329.347 486.003 332.929 489.585 332.929 494.003C332.929 498.421 329.347 502.003 324.929 502.003C320.511 502.003 316.929 498.421 316.929 494.003Z" fill="#ffbf00" fill-rule="evenodd" opacity="1" stroke="#ffffff" stroke-linecap="butt" stroke-linejoin="miter" stroke-width="3"/>
</g>
</svg>
