<svg height="588.0003959430019" version="1.1" width="839.0000000000123" xmlns="http://www.w3.org/2000/svg" id="svgSvg" viewBox="0 0 839.0000000000123 588.0003959430019" style="width: 1366px; height: 957.342px;"><desc>Created with Snap</desc><defs/><path d="M8,5 C10,2 10,2 5.67,3.6  C1.8,4.9 1.8,5.1 5.67,6.4 C10,8 10,8 8,5 z" fill="#ffffff" style=""/><path d="M2,5 C0,2 0,2 4.33,3.6  C8.2,4.9 8.2,5.1 4.33,6.4 C0,8 0,8 2,5 z" fill="#ffffff" style=""/><polyline points="469.0000000000123,388.0003959430019,739.0000000000123,388.0003959430019" fill="none" stroke="#ffffff" style="stroke-opacity: 0.9; stroke-width: 0; stroke-linecap: round; stroke-linejoin: round; marker-start: none; marker-end: none;"/><path d="M8,5 C10,2 10,2 5.67,3.6  C1.8,4.9 1.8,5.1 5.67,6.4 C10,8 10,8 8,5 z" fill="#ffffff" style=""/><path d="M2,5 C0,2 0,2 4.33,3.6  C8.2,4.9 8.2,5.1 4.33,6.4 C0,8 0,8 2,5 z" fill="#ffffff" style=""/><polyline points="415,100,415,127.00003711965643,415,154.00007423931285,415,181.00011135896926,415,208.0001484786257,415,235.00018559828214,415,262.0002227179385,415,289.00025983759497,415,316.0002969572514,415,343.00033407690785" fill="none" stroke="#ffffff" style="stroke-opacity: 0.9; stroke-width: 6; stroke-linecap: round; stroke-linejoin: round; marker-start: none; marker-end: none;"/><path d="M8,5 C10,2 10,2 5.67,3.6  C1.8,4.9 1.8,5.1 5.67,6.4 C10,8 10,8 8,5 z" fill="#ffffff" style=""/><path d="M2,5 C0,2 0,2 4.33,3.6  C8.2,4.9 8.2,5.1 4.33,6.4 C0,8 0,8 2,5 z" fill="#ffffff" style=""/><polyline points="415,100,415,127.00003711965643,415,154.00007423931285,415,181.00011135896926,415,208.0001484786257,415,235.00018559828214,415,262.0002227179385,415,289.00025983759497,415,316.0002969572514,415,343.00033407690785" fill="none" stroke="#ffffff" style="stroke-opacity: 0.9; stroke-width: 6; stroke-linecap: round; stroke-linejoin: round; marker-start: none; marker-end: none;"/><path d="M8,5 C10,2 10,2 5.67,3.6  C1.8,4.9 1.8,5.1 5.67,6.4 C10,8 10,8 8,5 z" fill="#ffffff" style=""/><path d="M2,5 C0,2 0,2 4.33,3.6  C8.2,4.9 8.2,5.1 4.33,6.4 C0,8 0,8 2,5 z" fill="#ffffff" style=""/><polyline points="235,217.0001608518445,235,199.0001361054069" fill="none" stroke="#ffffff" style="stroke-opacity: 0.9; stroke-width: 6; stroke-linecap: round; stroke-linejoin: round; marker-start: none; marker-end: none;"/><path d="M8,5 C10,2 10,2 5.67,3.6  C1.8,4.9 1.8,5.1 5.67,6.4 C10,8 10,8 8,5 z" fill="#863ce2" style=""/><path d="M2,5 C0,2 0,2 4.33,3.6  C8.2,4.9 8.2,5.1 4.33,6.4 C0,8 0,8 2,5 z" fill="#863ce2" style=""/><polyline points="100,190.0001237321881,100,226.0001732250633,100,208.0001484786257,163.0000000000041,226.0001732250633,100,208.0001484786257,154.00000000001228,190.0001237321881,163.0000000000041,226.0001732250633,171.9999999999959,190.0001237321881,181.00000000000819,226.0001732250633,190,190.0001237321881,244.00000000001228,208.0001484786257,181.00000000000819,226.0001732250633,244.00000000001228,208.0001484786257,244.00000000001228,190.0001237321881,244.00000000001228,226.0001732250633" fill="none" stroke="#863ce2" style="stroke-opacity: 0.9; stroke-width: 6; stroke-linecap: round; stroke-linejoin: round; marker-start: none; marker-end: none;"/><path d="M8,5 C10,2 10,2 5.67,3.6  C1.8,4.9 1.8,5.1 5.67,6.4 C10,8 10,8 8,5 z" fill="#e8b311" style=""/><path d="M2,5 C0,2 0,2 4.33,3.6  C8.2,4.9 8.2,5.1 4.33,6.4 C0,8 0,8 2,5 z" fill="#e8b311" style=""/><polyline points="451.0000000000082,100,451.0000000000082,127.00003711965643,451.0000000000082,154.00007423931285,451.0000000000082,181.00011135896926,451.0000000000082,208.0001484786257,451.0000000000082,235.00018559828214,451.0000000000082,262.0002227179385,451.0000000000082,289.00025983759497,451.0000000000082,316.0002969572514,451.0000000000082,343.00033407690785" fill="none" stroke="#e8b311" style="stroke-opacity: 0.9; stroke-width: 14; stroke-linecap: round; stroke-linejoin: round; marker-start: none; marker-end: none;"/><circle cx="415" cy="100" r="10" fill="#ffffff" stroke="#ffffff" style="stroke-width: 5; fill-opacity: 1;"/><circle cx="415" cy="127.00003711965643" r="10" fill="#ffffff" stroke="#ffffff" style="stroke-width: 5; fill-opacity: 1;"/><circle cx="415" cy="154.00007423931285" r="10" fill="#ffffff" stroke="#ffffff" style="stroke-width: 5; fill-opacity: 1;"/><circle cx="415" cy="181.00011135896926" r="10" fill="#ffffff" stroke="#ffffff" style="stroke-width: 5; fill-opacity: 1;"/><circle cx="415" cy="208.0001484786257" r="10" fill="#ffffff" stroke="#ffffff" style="stroke-width: 5; fill-opacity: 1;"/><circle cx="415" cy="235.00018559828214" r="10" fill="#ffffff" stroke="#ffffff" style="stroke-width: 5; fill-opacity: 1;"/><circle cx="415" cy="262.0002227179385" r="10" fill="#ffffff" stroke="#ffffff" style="stroke-width: 5; fill-opacity: 1;"/><circle cx="415" cy="289.00025983759497" r="10" fill="#ffffff" stroke="#ffffff" style="stroke-width: 5; fill-opacity: 1;"/><circle cx="415" cy="316.0002969572514" r="10" fill="#ffffff" stroke="#ffffff" style="stroke-width: 5; fill-opacity: 1;"/><circle cx="415" cy="343.00033407690785" r="10" fill="#ffffff" stroke="#ffffff" style="stroke-width: 5; fill-opacity: 1;"/><rect x="403" y="88" width="24" height="24" fill="#ffffff" stroke="#ffa500" transform="matrix(1,0,0,1,0,0)" style="stroke-width: 3; fill-opacity: 1;"/><rect x="403" y="115.00003711965643" width="24" height="24" fill="#ffffff" stroke="#ffa500" transform="matrix(1,0,0,1,0,0)" style="stroke-width: 3; fill-opacity: 1;"/><rect x="403" y="142.00007423931285" width="24" height="24" fill="#ffffff" stroke="#ffa500" transform="matrix(1,0,0,1,0,0)" style="stroke-width: 3; fill-opacity: 1;"/><rect x="403" y="169.00011135896926" width="24" height="24" fill="#ffffff" stroke="#ffa500" transform="matrix(1,0,0,1,0,0)" style="stroke-width: 3; fill-opacity: 1;"/><rect x="403" y="196.0001484786257" width="24" height="24" fill="#ffffff" stroke="#ffa500" transform="matrix(1,0,0,1,0,0)" style="stroke-width: 3; fill-opacity: 1;"/><rect x="403" y="223.00018559828214" width="24" height="24" fill="#ffffff" stroke="#ffa500" transform="matrix(1,0,0,1,0,0)" style="stroke-width: 3; fill-opacity: 1;"/><rect x="403" y="250.00022271793853" width="24" height="24" fill="#ffffff" stroke="#ffa500" transform="matrix(1,0,0,1,0,0)" style="stroke-width: 3; fill-opacity: 1;"/><rect x="403" y="277.00025983759497" width="24" height="24" fill="#ffffff" stroke="#ffa500" transform="matrix(1,0,0,1,0,0)" style="stroke-width: 3; fill-opacity: 1;"/><rect x="403" y="304.0002969572514" width="24" height="24" fill="#ffffff" stroke="#ffa500" transform="matrix(1,0,0,1,0,0)" style="stroke-width: 3; fill-opacity: 1;"/><rect x="403" y="331.00033407690785" width="24" height="24" fill="#ffffff" stroke="#ffa500" transform="matrix(1,0,0,1,0,0)" style="stroke-width: 3; fill-opacity: 1;"/><circle cx="235" cy="217.0001608518445" r="2" fill="#ffffff" stroke="#ffffff" style="stroke-width: 0; fill-opacity: 0;"/><circle cx="235" cy="199.0001361054069" r="2" fill="#ffffff" stroke="#ffffff" style="stroke-width: 0; fill-opacity: 0;"/><circle cx="451.0000000000082" cy="100" r="4" fill="#ffffff" stroke="#000000" style="stroke-width: 0; fill-opacity: 1;"/><circle cx="451.0000000000082" cy="127.00003711965643" r="4" fill="#ffffff" stroke="#000000" style="stroke-width: 0; fill-opacity: 1;"/><circle cx="451.0000000000082" cy="154.00007423931285" r="4" fill="#ffffff" stroke="#000000" style="stroke-width: 0; fill-opacity: 1;"/><circle cx="451.0000000000082" cy="181.00011135896926" r="4" fill="#ffffff" stroke="#000000" style="stroke-width: 0; fill-opacity: 1;"/><circle cx="451.0000000000082" cy="208.0001484786257" r="4" fill="#ffffff" stroke="#000000" style="stroke-width: 0; fill-opacity: 1;"/><circle cx="451.0000000000082" cy="235.00018559828214" r="4" fill="#ffffff" stroke="#000000" style="stroke-width: 0; fill-opacity: 1;"/><circle cx="451.0000000000082" cy="262.0002227179385" r="4" fill="#ffffff" stroke="#000000" style="stroke-width: 0; fill-opacity: 1;"/><circle cx="451.0000000000082" cy="289.00025983759497" r="4" fill="#ffffff" stroke="#000000" style="stroke-width: 0; fill-opacity: 1;"/><circle cx="451.0000000000082" cy="316.0002969572514" r="4" fill="#ffffff" stroke="#000000" style="stroke-width: 0; fill-opacity: 1;"/><circle cx="451.0000000000082" cy="343.00033407690785" r="4" fill="#ffffff" stroke="#000000" style="stroke-width: 0; fill-opacity: 1;"/><text x="415" y="109" fill="#000000" transform="matrix(1,0,0,1,0,0)" style="font-size: 12px; font-family: Roboto, Arial, sans-serif; font-weight: 900; text-anchor: middle; letter-spacing: 0em;">01</text><text x="415" y="136.00003711965644" fill="#000000" transform="matrix(1,0,0,1,0,0)" style="font-size: 12px; font-family: Roboto, Arial, sans-serif; font-weight: 900; text-anchor: middle; letter-spacing: 0em;">02</text><text x="415" y="163.00007423931285" fill="#000000" transform="matrix(1,0,0,1,0,0)" style="font-size: 12px; font-family: Roboto, Arial, sans-serif; font-weight: 900; text-anchor: middle; letter-spacing: 0em;">03</text><text x="415" y="190.00011135896926" fill="#000000" transform="matrix(1,0,0,1,0,0)" style="font-size: 12px; font-family: Roboto, Arial, sans-serif; font-weight: 900; text-anchor: middle; letter-spacing: 0em;">04</text><text x="415" y="217.0001484786257" fill="#000000" transform="matrix(1,0,0,1,0,0)" style="font-size: 12px; font-family: Roboto, Arial, sans-serif; font-weight: 900; text-anchor: middle; letter-spacing: 0em;">05</text><text x="415" y="244.00018559828214" fill="#000000" transform="matrix(1,0,0,1,0,0)" style="font-size: 12px; font-family: Roboto, Arial, sans-serif; font-weight: 900; text-anchor: middle; letter-spacing: 0em;">06</text><text x="415" y="271.0002227179385" fill="#000000" transform="matrix(1,0,0,1,0,0)" style="font-size: 12px; font-family: Roboto, Arial, sans-serif; font-weight: 900; text-anchor: middle; letter-spacing: 0em;">07</text><text x="415" y="298.00025983759497" fill="#000000" transform="matrix(1,0,0,1,0,0)" style="font-size: 12px; font-family: Roboto, Arial, sans-serif; font-weight: 900; text-anchor: middle; letter-spacing: 0em;">08</text><text x="415" y="325.0002969572514" fill="#000000" transform="matrix(1,0,0,1,0,0)" style="font-size: 12px; font-family: Roboto, Arial, sans-serif; font-weight: 900; text-anchor: middle; letter-spacing: 0em;">09</text><text x="415" y="352.00033407690785" fill="#000000" transform="matrix(1,0,0,1,0,0)" style="font-size: 12px; font-family: Roboto, Arial, sans-serif; font-weight: 900; text-anchor: middle; letter-spacing: 0em;">10</text><text x="415" y="97" fill="#000000" transform="matrix(1,0,0,1,0,0)" style="font-size: 12px; font-family: Roboto, Arial, sans-serif; font-weight: 900; text-anchor: middle; letter-spacing: 0em;">KM</text><text x="415" y="124.00003711965643" fill="#000000" transform="matrix(1,0,0,1,0,0)" style="font-size: 12px; font-family: Roboto, Arial, sans-serif; font-weight: 900; text-anchor: middle; letter-spacing: 0em;">KM</text><text x="415" y="151.00007423931285" fill="#000000" transform="matrix(1,0,0,1,0,0)" style="font-size: 12px; font-family: Roboto, Arial, sans-serif; font-weight: 900; text-anchor: middle; letter-spacing: 0em;">KM</text><text x="415" y="178.00011135896926" fill="#000000" transform="matrix(1,0,0,1,0,0)" style="font-size: 12px; font-family: Roboto, Arial, sans-serif; font-weight: 900; text-anchor: middle; letter-spacing: 0em;">KM</text><text x="415" y="205.0001484786257" fill="#000000" transform="matrix(1,0,0,1,0,0)" style="font-size: 12px; font-family: Roboto, Arial, sans-serif; font-weight: 900; text-anchor: middle; letter-spacing: 0em;">KM</text><text x="415" y="232.00018559828214" fill="#000000" transform="matrix(1,0,0,1,0,0)" style="font-size: 12px; font-family: Roboto, Arial, sans-serif; font-weight: 900; text-anchor: middle; letter-spacing: 0em;">KM</text><text x="415" y="259.0002227179385" fill="#000000" transform="matrix(1,0,0,1,0,0)" style="font-size: 12px; font-family: Roboto, Arial, sans-serif; font-weight: 900; text-anchor: middle; letter-spacing: 0em;">KM</text><text x="415" y="286.00025983759497" fill="#000000" transform="matrix(1,0,0,1,0,0)" style="font-size: 12px; font-family: Roboto, Arial, sans-serif; font-weight: 900; text-anchor: middle; letter-spacing: 0em;">KM</text><text x="415" y="313.0002969572514" fill="#000000" transform="matrix(1,0,0,1,0,0)" style="font-size: 12px; font-family: Roboto, Arial, sans-serif; font-weight: 900; text-anchor: middle; letter-spacing: 0em;">KM</text><text x="415" y="340.00033407690785" fill="#000000" transform="matrix(1,0,0,1,0,0)" style="font-size: 12px; font-family: Roboto, Arial, sans-serif; font-weight: 900; text-anchor: middle; letter-spacing: 0em;">KM</text><text x="255" y="224.0001608518445" fill="#000000" transform="matrix(1,0,0,1,0,0)" style="font-size: 20px; font-family: Roboto, Arial, sans-serif; font-weight: 900; text-anchor: start; letter-spacing: 0em;">叶涌モノレール</text><text x="255" y="204.0001361054069" fill="#000000" transform="matrix(1,0,0,1,0,0)" style="font-size: 16px; font-family: Roboto, Arial, sans-serif; font-weight: 900; text-anchor: start; letter-spacing: 0em;">Kawaki Monorail</text><text x="471.0000000000082" y="106" fill="#ff1900" transform="matrix(1,0,0,1,0,0)" style="font-size: 18px; font-family: Roboto, Arial, sans-serif; font-weight: 900; text-anchor: start; letter-spacing: 0em;">峰斗苑 / Minetoen</text><text x="471.0000000000082" y="133.00003711965644" fill="#ff1900" transform="matrix(1,0,0,1,0,0)" style="font-size: 18px; font-family: Roboto, Arial, sans-serif; font-weight: 900; text-anchor: start; letter-spacing: 0em;">千歳台 / Chitosedai</text><text x="471.0000000000082" y="160.00007423931285" fill="#ff1900" transform="matrix(1,0,0,1,0,0)" style="font-size: 18px; font-family: Roboto, Arial, sans-serif; font-weight: 900; text-anchor: start; letter-spacing: 0em;">久遠 / Kuon</text><text x="471.0000000000082" y="187.00011135896926" fill="#ff1900" transform="matrix(1,0,0,1,0,0)" style="font-size: 18px; font-family: Roboto, Arial, sans-serif; font-weight: 900; text-anchor: start; letter-spacing: 0em;">北叶涌 / Kita-Kawaki</text><text x="471.0000000000082" y="214.0001484786257" fill="#ff1900" transform="matrix(1,0,0,1,0,0)" style="font-size: 18px; font-family: Roboto, Arial, sans-serif; font-weight: 900; text-anchor: start; letter-spacing: 0em;">雫大叶涌未来 / NadaiKawakiMirai</text><text x="471.0000000000082" y="241.00018559828214" fill="#ff1900" transform="matrix(1,0,0,1,0,0)" style="font-size: 18px; font-family: Roboto, Arial, sans-serif; font-weight: 900; text-anchor: start; letter-spacing: 0em;">叶涌 / Kawaki</text><text x="471.0000000000082" y="268.0002227179385" fill="#ff1900" transform="matrix(1,0,0,1,0,0)" style="font-size: 18px; font-family: Roboto, Arial, sans-serif; font-weight: 900; text-anchor: start; letter-spacing: 0em;">工座 / kōza</text><text x="471.0000000000082" y="295.00025983759497" fill="#ff1900" transform="matrix(1,0,0,1,0,0)" style="font-size: 18px; font-family: Roboto, Arial, sans-serif; font-weight: 900; text-anchor: start; letter-spacing: 0em;">広寿 / Kōju</text><text x="471.0000000000082" y="322.0002969572514" fill="#ff1900" transform="matrix(1,0,0,1,0,0)" style="font-size: 18px; font-family: Roboto, Arial, sans-serif; font-weight: 900; text-anchor: start; letter-spacing: 0em;">鷺名丘 / Saginaoka</text><text x="471.0000000000082" y="349.00033407690785" fill="#ff1900" transform="matrix(1,0,0,1,0,0)" style="font-size: 18px; font-family: Roboto, Arial, sans-serif; font-weight: 900; text-anchor: start; letter-spacing: 0em;">雫城大学 / Shizukugi-daigaku</text></svg>