<svg height="1038.0086733915869" version="1.1" width="1190" xmlns="http://www.w3.org/2000/svg" id="svgSvg" viewBox="0 0 1190 1038.0086733915869" style="width: 1366px; height: 1191.54px;"><desc>Created with Snap</desc><defs><marker viewBox="0 0 10 10" markerWidth="10" markerHeight="10" orient="auto" refX="5" refY="5" id="markerSl4y5akkqk" markerUnits="strokeWidth"><path d="M2,5 C0,2 0,2 4.33,3.6  C8.2,4.9 8.2,5.1 4.33,6.4 C0,8 0,8 2,5 z" fill="#199f19" style=""/></marker></defs><path d="M8,5 C10,2 10,2 5.67,3.6  C1.8,4.9 1.8,5.1 5.67,6.4 C10,8 10,8 8,5 z" fill="#ffffff" style=""/><path d="M2,5 C0,2 0,2 4.33,3.6  C8.2,4.9 8.2,5.1 4.33,6.4 C0,8 0,8 2,5 z" fill="#ffffff" style=""/><polyline points="838.0000000000246,748.0076156609057,1090,748.0076156609057" fill="none" stroke="#ffffff" style="stroke-opacity: 0.9; stroke-width: 0; stroke-linecap: round; stroke-linejoin: round; marker-start: none; marker-end: none;"/><path d="M8,5 C10,2 10,2 5.67,3.6  C1.8,4.9 1.8,5.1 5.67,6.4 C10,8 10,8 8,5 z" fill="#ffffff" style=""/><path d="M2,5 C0,2 0,2 4.33,3.6  C8.2,4.9 8.2,5.1 4.33,6.4 C0,8 0,8 2,5 z" fill="#ffffff" style=""/><polyline points="946.0000000000082,280.0021154613627,946.0000000000082,100" fill="none" stroke="#ffffff" style="stroke-opacity: 0.9; stroke-width: 0; stroke-linecap: round; stroke-linejoin: round; marker-start: none; marker-end: none;"/><path d="M8,5 C10,2 10,2 5.67,3.6  C1.8,4.9 1.8,5.1 5.67,6.4 C10,8 10,8 8,5 z" fill="#ffffff" style=""/><path d="M2,5 C0,2 0,2 4.33,3.6  C8.2,4.9 8.2,5.1 4.33,6.4 C0,8 0,8 2,5 z" fill="#ffffff" style=""/><polyline points="824.5071999999982,496.004654014998,824.5071999999982,514.0048655611341" fill="none" stroke="#ffffff" style="stroke-opacity: 0.9; stroke-width: 0; stroke-linecap: round; stroke-linejoin: round; marker-start: none; marker-end: none;"/><path d="M8,5 C10,2 10,2 5.67,3.6  C1.8,4.9 1.8,5.1 5.67,6.4 C10,8 10,8 8,5 z" fill="#0000ff" style=""/><path d="M2,5 C0,2 0,2 4.33,3.6  C8.2,4.9 8.2,5.1 4.33,6.4 C0,8 0,8 2,5 z" fill="#0000ff" style=""/><polyline points="693.9999999999918,460.0042309227254,712.0000000000164,532.0050771072704,730,460.0042309227254,748.0000000000246,532.0050771072704,766.0000000000082,460.0042309227254,766.0000000000082,532.0050771072704,766.0000000000082,460.0042309227254,820,532.0050771072704,820,460.0042309227254" fill="none" stroke="#0000ff" style="stroke-opacity: 0.9; stroke-width: 6; stroke-linecap: round; stroke-linejoin: round; marker-start: none; marker-end: none;"/><path d="M8,5 C10,2 10,2 5.67,3.6  C1.8,4.9 1.8,5.1 5.67,6.4 C10,8 10,8 8,5 z" fill="#000000" style=""/><path d="M2,5 C0,2 0,2 4.33,3.6  C8.2,4.9 8.2,5.1 4.33,6.4 C0,8 0,8 2,5 z" fill="#000000" style=""/><polyline points="892.0000000000164,388.00338473818033,820,388.00338473818033,766.0000000000082,460.0042309227254,766.0000000000082,532.0050771072704,730,586.0057117456793" fill="none" stroke="#000000" style="stroke-opacity: 0.9; stroke-width: 6; stroke-linecap: round; stroke-linejoin: round; marker-start: none; marker-end: none;"/><path d="M8,5 C10,2 10,2 5.67,3.6  C1.8,4.9 1.8,5.1 5.67,6.4 C10,8 10,8 8,5 z" fill="#199f19" style=""/><polyline points="532.0000000000164,694.0069810224969,766.0000000000082,712.0071925686332,873.9999999999918,712.0071925686332" fill="none" stroke="#199f19" style="stroke-opacity: 0.9; stroke-width: 6; stroke-linecap: round; stroke-linejoin: round; stroke-dasharray: 0, 22; marker-start: none; marker-end: url(&quot;#markerSl4y5akkqk&quot;);"/><path d="M8,5 C10,2 10,2 5.67,3.6  C1.8,4.9 1.8,5.1 5.67,6.4 C10,8 10,8 8,5 z" fill="#199f19" style=""/><path d="M2,5 C0,2 0,2 4.33,3.6  C8.2,4.9 8.2,5.1 4.33,6.4 C0,8 0,8 2,5 z" fill="#199f19" style=""/><polyline points="532.0000000000164,694.0069810224969,496.0000000000082,694.0069810224969,460,694.0069810224969,423.9999999999918,694.0069810224969,388.00000000002456,694.0069810224969,352.00000000001637,694.0069810224969,316.0000000000082,694.0069810224969,280,694.0069810224969,243.99999999999181,694.0069810224969,208.00000000002456,694.0069810224969,172.00000000001637,694.0069810224969,136.00000000000819,694.0069810224969,100,694.0069810224969" fill="none" stroke="#199f19" style="stroke-opacity: 0.9; stroke-width: 6; stroke-linecap: round; stroke-linejoin: round; marker-start: none; marker-end: none;"/><path d="M8,5 C10,2 10,2 5.67,3.6  C1.8,4.9 1.8,5.1 5.67,6.4 C10,8 10,8 8,5 z" fill="#db1f1f" style=""/><path d="M2,5 C0,2 0,2 4.33,3.6  C8.2,4.9 8.2,5.1 4.33,6.4 C0,8 0,8 2,5 z" fill="#db1f1f" style=""/><polyline points="532.0000000000164,298.002327007499,532.0000000000164,334.0027500997715,532.0000000000164,370.003173192044,532.0000000000164,406.0035962843166,532.0000000000164,442.0040193765891,532.0000000000164,478.00444246886167,532.0000000000164,514.0048655611341,532.0000000000164,550.0052886534068,532.0000000000164,586.0057117456793,532.0000000000164,622.0061348379518,532.0000000000164,658.0065579302243,532.0000000000164,694.0069810224969,532.0000000000164,730.0074041147694,532.0000000000164,766.0078272070419,532.0000000000164,802.0082502993145,532.0000000000164,838.008673391587" fill="none" stroke="#db1f1f" style="stroke-opacity: 0.9; stroke-width: 6; stroke-linecap: round; stroke-linejoin: round; marker-start: none; marker-end: none;"/><path d="M8,5 C10,2 10,2 5.67,3.6  C1.8,4.9 1.8,5.1 5.67,6.4 C10,8 10,8 8,5 z" fill="#2a2a5a" style=""/><path d="M2,5 C0,2 0,2 4.33,3.6  C8.2,4.9 8.2,5.1 4.33,6.4 C0,8 0,8 2,5 z" fill="#2a2a5a" style=""/><polyline points="423.9999999999918,298.002327007499,460,298.002327007499,496.0000000000082,298.002327007499,532.0000000000164,298.002327007499,568.0000000000246,298.002327007499,603.9999999999918,298.002327007499,640,298.002327007499,676.0000000000082,298.002327007499,712.0000000000164,298.002327007499,748.0000000000246,298.002327007499,783.9999999999918,298.002327007499,820,298.002327007499,856.0000000000082,298.002327007499,892.0000000000164,298.002327007499,928.0000000000246,298.002327007499" fill="none" stroke="#2a2a5a" style="stroke-opacity: 0.9; stroke-width: 6; stroke-linecap: round; stroke-linejoin: round; marker-start: none; marker-end: none;"/><circle cx="824.5071999999982" cy="496.004654014998" r="2" fill="#ffffff" stroke="#ffffff" style="stroke-width: 0; fill-opacity: 1;"/><circle cx="824.5071999999982" cy="514.0048655611341" r="2" fill="#ffffff" stroke="#ffffff" style="stroke-width: 0; fill-opacity: 1;"/><rect x="760.0000000000082" y="706.0071925686332" width="12" height="12" fill="#ffffff" stroke="#199f19" transform="matrix(1,0,0,1,0,0)" style="stroke-width: 3; fill-opacity: 1;"/><circle cx="873.9999999999918" cy="712.0071925686332" r="2" fill="#ffffff" stroke="#ffffff" style="stroke-width: 0; fill-opacity: 1;"/><rect x="490.0000000000082" y="688.0069810224969" width="12" height="12" fill="#ffffff" stroke="#199f19" transform="matrix(1,0,0,1,0,0)" style="stroke-width: 3; fill-opacity: 1;"/><rect x="454" y="688.0069810224969" width="12" height="12" fill="#ffffff" stroke="#199f19" transform="matrix(1,0,0,1,0,0)" style="stroke-width: 3; fill-opacity: 1;"/><rect x="417.9999999999918" y="688.0069810224969" width="12" height="12" fill="#ffffff" stroke="#199f19" transform="matrix(1,0,0,1,0,0)" style="stroke-width: 3; fill-opacity: 1;"/><rect x="382.00000000002456" y="688.0069810224969" width="12" height="12" fill="#ffffff" stroke="#199f19" transform="matrix(1,0,0,1,0,0)" style="stroke-width: 3; fill-opacity: 1;"/><rect x="346.00000000001637" y="688.0069810224969" width="12" height="12" fill="#ffffff" stroke="#199f19" transform="matrix(1,0,0,1,0,0)" style="stroke-width: 3; fill-opacity: 1;"/><rect x="310.0000000000082" y="688.0069810224969" width="12" height="12" fill="#ffffff" stroke="#199f19" transform="matrix(1,0,0,1,0,0)" style="stroke-width: 3; fill-opacity: 1;"/><rect x="274" y="688.0069810224969" width="12" height="12" fill="#ffffff" stroke="#199f19" transform="matrix(1,0,0,1,0,0)" style="stroke-width: 3; fill-opacity: 1;"/><rect x="237.99999999999181" y="688.0069810224969" width="12" height="12" fill="#ffffff" stroke="#199f19" transform="matrix(1,0,0,1,0,0)" style="stroke-width: 3; fill-opacity: 1;"/><rect x="202.00000000002456" y="688.0069810224969" width="12" height="12" fill="#ffffff" stroke="#199f19" transform="matrix(1,0,0,1,0,0)" style="stroke-width: 3; fill-opacity: 1;"/><rect x="166.00000000001637" y="688.0069810224969" width="12" height="12" fill="#ffffff" stroke="#199f19" transform="matrix(1,0,0,1,0,0)" style="stroke-width: 3; fill-opacity: 1;"/><rect x="130.00000000000819" y="688.0069810224969" width="12" height="12" fill="#ffffff" stroke="#199f19" transform="matrix(1,0,0,1,0,0)" style="stroke-width: 3; fill-opacity: 1;"/><rect x="94" y="688.0069810224969" width="12" height="12" fill="#ffffff" stroke="#199f19" transform="matrix(1,0,0,1,0,0)" style="stroke-width: 3; fill-opacity: 1;"/><rect x="526.0000000000164" y="328.0027500997715" width="12" height="12" fill="#ffffff" stroke="#db1f1f" transform="matrix(1,0,0,1,0,0)" style="stroke-width: 3; fill-opacity: 1;"/><rect x="526.0000000000164" y="364.003173192044" width="12" height="12" fill="#ffffff" stroke="#db1f1f" transform="matrix(1,0,0,1,0,0)" style="stroke-width: 3; fill-opacity: 1;"/><rect x="526.0000000000164" y="400.0035962843166" width="12" height="12" fill="#ffffff" stroke="#db1f1f" transform="matrix(1,0,0,1,0,0)" style="stroke-width: 3; fill-opacity: 1;"/><rect x="526.0000000000164" y="436.0040193765891" width="12" height="12" fill="#ffffff" stroke="#db1f1f" transform="matrix(1,0,0,1,0,0)" style="stroke-width: 3; fill-opacity: 1;"/><rect x="526.0000000000164" y="472.00444246886167" width="12" height="12" fill="#ffffff" stroke="#db1f1f" transform="matrix(1,0,0,1,0,0)" style="stroke-width: 3; fill-opacity: 1;"/><rect x="526.0000000000164" y="508.0048655611341" width="12" height="12" fill="#ffffff" stroke="#db1f1f" transform="matrix(1,0,0,1,0,0)" style="stroke-width: 3; fill-opacity: 1;"/><rect x="526.0000000000164" y="544.0052886534068" width="12" height="12" fill="#ffffff" stroke="#db1f1f" transform="matrix(1,0,0,1,0,0)" style="stroke-width: 3; fill-opacity: 1;"/><rect x="526.0000000000164" y="580.0057117456793" width="12" height="12" fill="#ffffff" stroke="#db1f1f" transform="matrix(1,0,0,1,0,0)" style="stroke-width: 3; fill-opacity: 1;"/><rect x="526.0000000000164" y="616.0061348379518" width="12" height="12" fill="#ffffff" stroke="#db1f1f" transform="matrix(1,0,0,1,0,0)" style="stroke-width: 3; fill-opacity: 1;"/><rect x="526.0000000000164" y="652.0065579302243" width="12" height="12" fill="#ffffff" stroke="#db1f1f" transform="matrix(1,0,0,1,0,0)" style="stroke-width: 3; fill-opacity: 1;"/><rect x="526.0000000000164" y="688.0069810224969" width="12" height="12" fill="#ffffff" stroke="#db1f1f" transform="matrix(1,0,0,1,0,0)" style="stroke-width: 3; fill-opacity: 1;"/><rect x="526.0000000000164" y="724.0074041147694" width="12" height="12" fill="#ffffff" stroke="#db1f1f" transform="matrix(1,0,0,1,0,0)" style="stroke-width: 3; fill-opacity: 1;"/><rect x="526.0000000000164" y="760.0078272070419" width="12" height="12" fill="#ffffff" stroke="#db1f1f" transform="matrix(1,0,0,1,0,0)" style="stroke-width: 3; fill-opacity: 1;"/><rect x="526.0000000000164" y="796.0082502993145" width="12" height="12" fill="#ffffff" stroke="#db1f1f" transform="matrix(1,0,0,1,0,0)" style="stroke-width: 3; fill-opacity: 1;"/><rect x="526.0000000000164" y="832.008673391587" width="12" height="12" fill="#ffffff" stroke="#db1f1f" transform="matrix(1,0,0,1,0,0)" style="stroke-width: 3; fill-opacity: 1;"/><rect x="417.9999999999918" y="292.002327007499" width="12" height="12" fill="#ffffff" stroke="#2a2a5a" transform="matrix(1,0,0,1,0,0)" style="stroke-width: 3; fill-opacity: 1;"/><rect x="454" y="292.002327007499" width="12" height="12" fill="#ffffff" stroke="#2a2a5a" transform="matrix(1,0,0,1,0,0)" style="stroke-width: 3; fill-opacity: 1;"/><rect x="490.0000000000082" y="292.002327007499" width="12" height="12" fill="#ffffff" stroke="#2a2a5a" transform="matrix(1,0,0,1,0,0)" style="stroke-width: 3; fill-opacity: 1;"/><rect x="526.0000000000164" y="292.002327007499" width="12" height="12" fill="#ffffff" stroke="#2a2a5a" transform="matrix(1,0,0,1,0,0)" style="stroke-width: 3; fill-opacity: 1;"/><rect x="562.0000000000246" y="292.002327007499" width="12" height="12" fill="#ffffff" stroke="#2a2a5a" transform="matrix(1,0,0,1,0,0)" style="stroke-width: 3; fill-opacity: 1;"/><rect x="597.9999999999918" y="292.002327007499" width="12" height="12" fill="#ffffff" stroke="#2a2a5a" transform="matrix(1,0,0,1,0,0)" style="stroke-width: 3; fill-opacity: 1;"/><rect x="634" y="292.002327007499" width="12" height="12" fill="#ffffff" stroke="#2a2a5a" transform="matrix(1,0,0,1,0,0)" style="stroke-width: 3; fill-opacity: 1;"/><rect x="670.0000000000082" y="292.002327007499" width="12" height="12" fill="#ffffff" stroke="#2a2a5a" transform="matrix(1,0,0,1,0,0)" style="stroke-width: 3; fill-opacity: 1;"/><rect x="706.0000000000164" y="292.002327007499" width="12" height="12" fill="#ffffff" stroke="#2a2a5a" transform="matrix(1,0,0,1,0,0)" style="stroke-width: 3; fill-opacity: 1;"/><rect x="742.0000000000246" y="292.002327007499" width="12" height="12" fill="#ffffff" stroke="#2a2a5a" transform="matrix(1,0,0,1,0,0)" style="stroke-width: 3; fill-opacity: 1;"/><rect x="777.9999999999918" y="292.002327007499" width="12" height="12" fill="#ffffff" stroke="#2a2a5a" transform="matrix(1,0,0,1,0,0)" style="stroke-width: 3; fill-opacity: 1;"/><rect x="814" y="292.002327007499" width="12" height="12" fill="#ffffff" stroke="#2a2a5a" transform="matrix(1,0,0,1,0,0)" style="stroke-width: 3; fill-opacity: 1;"/><rect x="850.0000000000082" y="292.002327007499" width="12" height="12" fill="#ffffff" stroke="#2a2a5a" transform="matrix(1,0,0,1,0,0)" style="stroke-width: 3; fill-opacity: 1;"/><rect x="886.0000000000164" y="292.002327007499" width="12" height="12" fill="#ffffff" stroke="#2a2a5a" transform="matrix(1,0,0,1,0,0)" style="stroke-width: 3; fill-opacity: 1;"/><rect x="922.0000000000246" y="292.002327007499" width="12" height="12" fill="#ffffff" stroke="#2a2a5a" transform="matrix(1,0,0,1,0,0)" style="stroke-width: 3; fill-opacity: 1;"/><text x="844.5071999999982" y="502.004654014998" fill="#000000" transform="matrix(1,0,0,1,0,0)" style="font-size: 18px; font-family: Roboto, Arial, sans-serif; font-weight: 900; text-anchor: start; letter-spacing: 0em;">区境ネットワーク</text><text x="844.5071999999982" y="520.0048655611341" fill="#000000" transform="matrix(1,0,0,1,0,0)" style="font-size: 18px; font-family: Roboto, Arial, sans-serif; font-weight: 900; text-anchor: start; letter-spacing: 0em;">Kuzakai Network</text><text x="766.0000000000082" y="692.0071925686332" fill="#000000" transform="matrix(1,0,0,1,0,0)" style="font-size: 18px; font-family: Roboto, Arial, sans-serif; font-weight: 900; text-anchor: end; writing-mode: tb; letter-spacing: -0.1em;">Tōsō 透操</text><text x="881.9999999999918" y="718.0071925686332" fill="#000000" transform="matrix(1,0,0,1,0,0)" style="font-size: 18px; font-family: Roboto, Arial, sans-serif; font-weight: 900; text-anchor: start; letter-spacing: 0em;">宿川高速鉄道 星瑳線へ直通</text><text x="496.0000000000082" y="674.0069810224969" fill="#000000" transform="matrix(1,0,0,1,0,0)" style="font-size: 18px; font-family: Roboto, Arial, sans-serif; font-weight: 900; text-anchor: end; writing-mode: tb; letter-spacing: -0.1em;">Ritto 立砥</text><text x="460" y="674.0069810224969" fill="#000000" transform="matrix(1,0,0,1,0,0)" style="font-size: 18px; font-family: Roboto, Arial, sans-serif; font-weight: 900; text-anchor: end; writing-mode: tb; letter-spacing: -0.1em;">Nishigoku 西石</text><text x="423.9999999999918" y="674.0069810224969" fill="#000000" transform="matrix(1,0,0,1,0,0)" style="font-size: 18px; font-family: Roboto, Arial, sans-serif; font-weight: 900; text-anchor: end; writing-mode: tb; letter-spacing: -0.1em;">Kami-Nagao 上長尾</text><text x="388.00000000002456" y="674.0069810224969" fill="#000000" transform="matrix(1,0,0,1,0,0)" style="font-size: 18px; font-family: Roboto, Arial, sans-serif; font-weight: 900; text-anchor: end; writing-mode: tb; letter-spacing: -0.1em;">Nagaosato 長尾里</text><text x="352.00000000001637" y="674.0069810224969" fill="#000000" transform="matrix(1,0,0,1,0,0)" style="font-size: 18px; font-family: Roboto, Arial, sans-serif; font-weight: 900; text-anchor: end; writing-mode: tb; letter-spacing: -0.1em;">Kagesumidai 影紺台</text><text x="316.0000000000082" y="674.0069810224969" fill="#000000" transform="matrix(1,0,0,1,0,0)" style="font-size: 18px; font-family: Roboto, Arial, sans-serif; font-weight: 900; text-anchor: end; writing-mode: tb; letter-spacing: -0.1em;">Kōnohara 河野原</text><text x="280" y="674.0069810224969" fill="#000000" transform="matrix(1,0,0,1,0,0)" style="font-size: 18px; font-family: Roboto, Arial, sans-serif; font-weight: 900; text-anchor: end; writing-mode: tb; letter-spacing: -0.1em;">Hōya 方椰</text><text x="243.99999999999181" y="674.0069810224969" fill="#000000" transform="matrix(1,0,0,1,0,0)" style="font-size: 18px; font-family: Roboto, Arial, sans-serif; font-weight: 900; text-anchor: end; writing-mode: tb; letter-spacing: -0.1em;">Nishi-Hōya 西方椰</text><text x="208.00000000002456" y="674.0069810224969" fill="#000000" transform="matrix(1,0,0,1,0,0)" style="font-size: 18px; font-family: Roboto, Arial, sans-serif; font-weight: 900; text-anchor: end; writing-mode: tb; letter-spacing: -0.1em;">Huridome 振留</text><text x="172.00000000001637" y="674.0069810224969" fill="#000000" transform="matrix(1,0,0,1,0,0)" style="font-size: 18px; font-family: Roboto, Arial, sans-serif; font-weight: 900; text-anchor: end; writing-mode: tb; letter-spacing: -0.1em;">Kawabata 川端</text><text x="136.00000000000819" y="674.0069810224969" fill="#000000" transform="matrix(1,0,0,1,0,0)" style="font-size: 18px; font-family: Roboto, Arial, sans-serif; font-weight: 900; text-anchor: end; writing-mode: tb; letter-spacing: -0.1em;">Kawabata-Nishi 川端西</text><text x="100" y="674.0069810224969" fill="#000000" transform="matrix(1,0,0,1,0,0)" style="font-size: 18px; font-family: Roboto, Arial, sans-serif; font-weight: 900; text-anchor: end; writing-mode: tb; letter-spacing: -0.1em;">Kawaki 叶涌</text><text x="552.0000000000164" y="340.0027500997715" fill="#000000" transform="matrix(1,0,0,1,0,0)" style="font-size: 18px; font-family: Roboto, Arial, sans-serif; font-weight: 900; text-anchor: start; letter-spacing: 0em;">甲斐岡 Kaioka</text><text x="552.0000000000164" y="376.003173192044" fill="#000000" transform="matrix(1,0,0,1,0,0)" style="font-size: 18px; font-family: Roboto, Arial, sans-serif; font-weight: 900; text-anchor: start; letter-spacing: 0em;">沖田 Okita</text><text x="552.0000000000164" y="412.0035962843166" fill="#000000" transform="matrix(1,0,0,1,0,0)" style="font-size: 18px; font-family: Roboto, Arial, sans-serif; font-weight: 900; text-anchor: start; letter-spacing: 0em;">沖田本町 Okita-Honchō</text><text x="552.0000000000164" y="448.0040193765891" fill="#000000" transform="matrix(1,0,0,1,0,0)" style="font-size: 18px; font-family: Roboto, Arial, sans-serif; font-weight: 900; text-anchor: start; letter-spacing: 0em;">室佐乃 Murosano</text><text x="552.0000000000164" y="484.00444246886167" fill="#000000" transform="matrix(1,0,0,1,0,0)" style="font-size: 18px; font-family: Roboto, Arial, sans-serif; font-weight: 900; text-anchor: start; letter-spacing: 0em;">静波 Shizunami</text><text x="552.0000000000164" y="520.0048655611341" fill="#000000" transform="matrix(1,0,0,1,0,0)" style="font-size: 18px; font-family: Roboto, Arial, sans-serif; font-weight: 900; text-anchor: start; letter-spacing: 0em;">小矢町 Koyachō</text><text x="552.0000000000164" y="556.0052886534068" fill="#000000" transform="matrix(1,0,0,1,0,0)" style="font-size: 18px; font-family: Roboto, Arial, sans-serif; font-weight: 900; text-anchor: start; letter-spacing: 0em;">元小矢 Moto-Koya</text><text x="552.0000000000164" y="592.0057117456793" fill="#000000" transform="matrix(1,0,0,1,0,0)" style="font-size: 18px; font-family: Roboto, Arial, sans-serif; font-weight: 900; text-anchor: start; letter-spacing: 0em;">封原 Tozihara</text><text x="552.0000000000164" y="628.0061348379518" fill="#000000" transform="matrix(1,0,0,1,0,0)" style="font-size: 18px; font-family: Roboto, Arial, sans-serif; font-weight: 900; text-anchor: start; letter-spacing: 0em;">沿戸 Ento</text><text x="552.0000000000164" y="664.0065579302243" fill="#000000" transform="matrix(1,0,0,1,0,0)" style="font-size: 18px; font-family: Roboto, Arial, sans-serif; font-weight: 900; text-anchor: start; letter-spacing: 0em;">栖実野北 Sumino-Kita</text><text x="552.0000000000164" y="700.0069810224969" fill="#000000" transform="matrix(1,0,0,1,0,0)" style="font-size: 18px; font-family: Roboto, Arial, sans-serif; font-weight: 900; text-anchor: start; letter-spacing: 0em;">栖実野 Sumino</text><text x="552.0000000000164" y="736.0074041147694" fill="#000000" transform="matrix(1,0,0,1,0,0)" style="font-size: 18px; font-family: Roboto, Arial, sans-serif; font-weight: 900; text-anchor: start; letter-spacing: 0em;">椎名 Shīna</text><text x="552.0000000000164" y="772.0078272070419" fill="#000000" transform="matrix(1,0,0,1,0,0)" style="font-size: 18px; font-family: Roboto, Arial, sans-serif; font-weight: 900; text-anchor: start; letter-spacing: 0em;">南椎名 Minami-Shīna</text><text x="552.0000000000164" y="808.0082502993145" fill="#000000" transform="matrix(1,0,0,1,0,0)" style="font-size: 18px; font-family: Roboto, Arial, sans-serif; font-weight: 900; text-anchor: start; letter-spacing: 0em;">鞍付 Kuratsuke</text><text x="552.0000000000164" y="844.008673391587" fill="#000000" transform="matrix(1,0,0,1,0,0)" style="font-size: 18px; font-family: Roboto, Arial, sans-serif; font-weight: 900; text-anchor: start; letter-spacing: 0em;">朋翔 Nakato</text><text x="423.9999999999918" y="278.002327007499" fill="#000000" transform="matrix(1,0,0,1,0,0)" style="font-size: 18px; font-family: Roboto, Arial, sans-serif; font-weight: 900; text-anchor: end; writing-mode: tb; letter-spacing: -0.1em;">Tanjin 短神</text><text x="460" y="278.002327007499" fill="#000000" transform="matrix(1,0,0,1,0,0)" style="font-size: 18px; font-family: Roboto, Arial, sans-serif; font-weight: 900; text-anchor: end; writing-mode: tb; letter-spacing: -0.1em;">Tsujiyama 辻山</text><text x="496.0000000000082" y="278.002327007499" fill="#000000" transform="matrix(1,0,0,1,0,0)" style="font-size: 18px; font-family: Roboto, Arial, sans-serif; font-weight: 900; text-anchor: end; writing-mode: tb; letter-spacing: -0.1em;">Minami-Inui 南乾</text><text x="532.0000000000164" y="278.002327007499" fill="#000000" transform="matrix(1,0,0,1,0,0)" style="font-size: 18px; font-family: Roboto, Arial, sans-serif; font-weight: 900; text-anchor: end; writing-mode: tb; letter-spacing: -0.1em;">Yarihara 槍原</text><text x="568.0000000000246" y="278.002327007499" fill="#000000" transform="matrix(1,0,0,1,0,0)" style="font-size: 18px; font-family: Roboto, Arial, sans-serif; font-weight: 900; text-anchor: end; writing-mode: tb; letter-spacing: -0.1em;">Minami-Yarihara 南槍原</text><text x="603.9999999999918" y="278.002327007499" fill="#000000" transform="matrix(1,0,0,1,0,0)" style="font-size: 18px; font-family: Roboto, Arial, sans-serif; font-weight: 900; text-anchor: end; writing-mode: tb; letter-spacing: -0.1em;">Sakaebata 栄端</text><text x="640" y="278.002327007499" fill="#000000" transform="matrix(1,0,0,1,0,0)" style="font-size: 18px; font-family: Roboto, Arial, sans-serif; font-weight: 900; text-anchor: end; writing-mode: tb; letter-spacing: -0.1em;">Nakai-Kōen 中伊公園</text><text x="676.0000000000082" y="278.002327007499" fill="#000000" transform="matrix(1,0,0,1,0,0)" style="font-size: 18px; font-family: Roboto, Arial, sans-serif; font-weight: 900; text-anchor: end; writing-mode: tb; letter-spacing: -0.1em;">Nakai 中伊</text><text x="712.0000000000164" y="278.002327007499" fill="#000000" transform="matrix(1,0,0,1,0,0)" style="font-size: 18px; font-family: Roboto, Arial, sans-serif; font-weight: 900; text-anchor: end; writing-mode: tb; letter-spacing: -0.1em;">Inoyori 井野寄</text><text x="748.0000000000246" y="278.002327007499" fill="#000000" transform="matrix(1,0,0,1,0,0)" style="font-size: 18px; font-family: Roboto, Arial, sans-serif; font-weight: 900; text-anchor: end; writing-mode: tb; letter-spacing: -0.1em;">Meiki 芽域</text><text x="783.9999999999918" y="278.002327007499" fill="#000000" transform="matrix(1,0,0,1,0,0)" style="font-size: 18px; font-family: Roboto, Arial, sans-serif; font-weight: 900; text-anchor: end; writing-mode: tb; letter-spacing: -0.1em;">Kita-Meiki 北芽域</text><text x="820" y="278.002327007499" fill="#000000" transform="matrix(1,0,0,1,0,0)" style="font-size: 18px; font-family: Roboto, Arial, sans-serif; font-weight: 900; text-anchor: end; writing-mode: tb; letter-spacing: -0.1em;">Mukōji 報向寺</text><text x="856.0000000000082" y="278.002327007499" fill="#000000" transform="matrix(1,0,0,1,0,0)" style="font-size: 18px; font-family: Roboto, Arial, sans-serif; font-weight: 900; text-anchor: end; writing-mode: tb; letter-spacing: -0.1em;">Hosato-Kihou 保里城報</text><text x="892.0000000000164" y="278.002327007499" fill="#000000" transform="matrix(1,0,0,1,0,0)" style="font-size: 18px; font-family: Roboto, Arial, sans-serif; font-weight: 900; text-anchor: end; writing-mode: tb; letter-spacing: -0.1em;">Kino-Nishi 城野西</text><text x="928.0000000000246" y="278.002327007499" fill="#000000" transform="matrix(1,0,0,1,0,0)" style="font-size: 18px; font-family: Roboto, Arial, sans-serif; font-weight: 900; text-anchor: end; writing-mode: tb; letter-spacing: -0.1em;">Kino-Chuō 城野中央</text></svg>