<svg height="1200.0064635167257" version="1.1" width="1280" xmlns="http://www.w3.org/2000/svg" id="svgSvg" viewBox="0 0 1280 1200.0064635167257" style="width: 1366px; height: 1280.64px;"><desc>Created with Snap</desc><defs/><path d="M8,5 C10,2 10,2 5.67,3.6  C1.8,4.9 1.8,5.1 5.67,6.4 C10,8 10,8 8,5 z" fill="#ffffff" style=""/><path d="M2,5 C0,2 0,2 4.33,3.6  C8.2,4.9 8.2,5.1 4.33,6.4 C0,8 0,8 2,5 z" fill="#ffffff" style=""/><polyline points="351.9999999999345,784.0049122727115,100,784.0049122727115" fill="none" stroke="#ffffff" style="stroke-opacity: 0.9; stroke-width: 0; stroke-linecap: round; stroke-linejoin: round; marker-start: none; marker-end: none;"/><path d="M8,5 C10,2 10,2 5.67,3.6  C1.8,4.9 1.8,5.1 5.67,6.4 C10,8 10,8 8,5 z" fill="#ffffff" style=""/><path d="M2,5 C0,2 0,2 4.33,3.6  C8.2,4.9 8.2,5.1 4.33,6.4 C0,8 0,8 2,5 z" fill="#ffffff" style=""/><polyline points="873.9999999999509,154.00038781100352,1071.9999999999345,154.00038781100352,1180,154.00038781100352" fill="none" stroke="#ffffff" style="stroke-opacity: 0.9; stroke-width: 0; stroke-linecap: round; stroke-linejoin: round; marker-start: none; marker-end: none;"/><path d="M8,5 C10,2 10,2 5.67,3.6  C1.8,4.9 1.8,5.1 5.67,6.4 C10,8 10,8 8,5 z" fill="#d05dce" style=""/><path d="M2,5 C0,2 0,2 4.33,3.6  C8.2,4.9 8.2,5.1 4.33,6.4 C0,8 0,8 2,5 z" fill="#d05dce" style=""/><polyline points="495.99999999996726,388.0020683253522,477.99999999998363,406.00219759568665,477.99999999998363,586.0034902990318,351.9999999999345,640.0038781100354,351.9999999999345,820.0051708133806,621.9999999999345,820.0051708133806,640,838.0053000837149,675.9999999999673,874.0055586243841,711.9999999999345,910.0058171650531,747.9999999999836,946.0060757057222" fill="none" stroke="#d05dce" style="stroke-opacity: 0.9; stroke-width: 6; stroke-linecap: round; stroke-linejoin: round; marker-start: none; marker-end: none;"/><path d="M8,5 C10,2 10,2 5.67,3.6  C1.8,4.9 1.8,5.1 5.67,6.4 C10,8 10,8 8,5 z" fill="#168000" style=""/><path d="M2,5 C0,2 0,2 4.33,3.6  C8.2,4.9 8.2,5.1 4.33,6.4 C0,8 0,8 2,5 z" fill="#168000" style=""/><polyline points="171.99999999993452,1000.0064635167257,207.99999999998363,964.0062049760567,243.9999999999509,928.0059464353875,280,892.0056878947184,315.99999999996726,856.0054293540496,351.9999999999345,820.0051708133806,387.99999999998363,784.0049122727115,387.99999999998363,640.0038781100354,513.9999999999509,586.0034902990318,621.9999999999345,532.0031024880284,621.9999999999345,406.00219759568665,640,388.0020683253522,675.9999999999673,352.00180978468313,711.9999999999345,316.0015512440141,747.9999999999836,280.00129270334514,783.9999999999509,244.0010341626761,820,208.00077562200704,855.9999999999673,172.00051708133796,891.9999999999345,136.00025854066905,927.9999999999836,100" fill="none" stroke="#168000" style="stroke-opacity: 0.9; stroke-width: 6; stroke-linecap: round; stroke-linejoin: round; marker-start: none; marker-end: none;"/><path d="M8,5 C10,2 10,2 5.67,3.6  C1.8,4.9 1.8,5.1 5.67,6.4 C10,8 10,8 8,5 z" fill="#006080" style=""/><path d="M2,5 C0,2 0,2 4.33,3.6  C8.2,4.9 8.2,5.1 4.33,6.4 C0,8 0,8 2,5 z" fill="#006080" style=""/><polyline points="423.9999999999509,388.0020683253522,460,388.0020683253522,495.99999999996726,388.0020683253522,531.9999999999345,388.0020683253522,567.9999999999836,388.0020683253522,603.9999999999509,388.0020683253522,640,388.0020683253522,711.9999999999345,460.0025854066903,747.9999999999836,460.0025854066903,783.9999999999509,460.0025854066903,820,460.0025854066903,855.9999999999673,460.0025854066903,891.9999999999345,460.0025854066903,927.9999999999836,460.0025854066903,963.9999999999509,460.0025854066903,1000,460.0025854066903,1035.9999999999673,460.0025854066903" fill="none" stroke="#006080" style="stroke-opacity: 0.9; stroke-width: 6; stroke-linecap: round; stroke-linejoin: round; marker-start: none; marker-end: none;"/><path d="M8,5 C10,2 10,2 5.67,3.6  C1.8,4.9 1.8,5.1 5.67,6.4 C10,8 10,8 8,5 z" fill="#ffbf00" style=""/><path d="M2,5 C0,2 0,2 4.33,3.6  C8.2,4.9 8.2,5.1 4.33,6.4 C0,8 0,8 2,5 z" fill="#ffbf00" style=""/><polyline points="640,100,640,136.00025854066905,640,172.00051708133796,640,208.00077562200704,640,244.0010341626761,640,280.00129270334514,640,316.0015512440141,640,352.00180978468313,640,388.0020683253522,640,622.0037488397008,640,658.0040073803698,640,694.004265921039,640,730.004524461708,640,766.004783002377,640,802.005041543046,640,838.0053000837149" fill="none" stroke="#ffbf00" style="stroke-opacity: 0.9; stroke-width: 6; stroke-linecap: round; stroke-linejoin: round; marker-start: none; marker-end: none;"/><circle cx="495.99999999996726" cy="388.0020683253522" r="8" fill="#000000" stroke="#ffffff" style="stroke-width: 3; fill-opacity: 1;"/><circle cx="351.9999999999345" cy="640.0038781100354" r="8" fill="#d05dce" stroke="#ffffff" style="stroke-width: 3; fill-opacity: 1;"/><circle cx="351.9999999999345" cy="820.0051708133806" r="8" fill="#000000" stroke="#ffffff" style="stroke-width: 3; fill-opacity: 1;"/><circle cx="640" cy="838.0053000837149" r="8" fill="#000000" stroke="#ffffff" style="stroke-width: 3; fill-opacity: 1;"/><circle cx="675.9999999999673" cy="874.0055586243841" r="8" fill="#d05dce" stroke="#ffffff" style="stroke-width: 3; fill-opacity: 1;"/><circle cx="711.9999999999345" cy="910.0058171650531" r="8" fill="#d05dce" stroke="#ffffff" style="stroke-width: 3; fill-opacity: 1;"/><circle cx="747.9999999999836" cy="946.0060757057222" r="8" fill="#d05dce" stroke="#ffffff" style="stroke-width: 3; fill-opacity: 1;"/><circle cx="171.99999999993452" cy="1000.0064635167257" r="8" fill="#168000" stroke="#ffffff" style="stroke-width: 3; fill-opacity: 1;"/><circle cx="207.99999999998363" cy="964.0062049760567" r="8" fill="#168000" stroke="#ffffff" style="stroke-width: 3; fill-opacity: 1;"/><circle cx="243.9999999999509" cy="928.0059464353875" r="8" fill="#168000" stroke="#ffffff" style="stroke-width: 3; fill-opacity: 1;"/><circle cx="280" cy="892.0056878947184" r="8" fill="#168000" stroke="#ffffff" style="stroke-width: 3; fill-opacity: 1;"/><circle cx="315.99999999996726" cy="856.0054293540496" r="8" fill="#168000" stroke="#ffffff" style="stroke-width: 3; fill-opacity: 1;"/><circle cx="351.9999999999345" cy="820.0051708133806" r="8" fill="#000000" stroke="#ffffff" style="stroke-width: 3; fill-opacity: 1;"/><circle cx="640" cy="388.0020683253522" r="8" fill="#168000" stroke="#ffffff" style="stroke-width: 3; fill-opacity: 1;"/><circle cx="675.9999999999673" cy="352.00180978468313" r="8" fill="#168000" stroke="#ffffff" style="stroke-width: 3; fill-opacity: 1;"/><circle cx="711.9999999999345" cy="316.0015512440141" r="8" fill="#168000" stroke="#ffffff" style="stroke-width: 3; fill-opacity: 1;"/><circle cx="747.9999999999836" cy="280.00129270334514" r="8" fill="#168000" stroke="#ffffff" style="stroke-width: 3; fill-opacity: 1;"/><circle cx="783.9999999999509" cy="244.0010341626761" r="8" fill="#168000" stroke="#ffffff" style="stroke-width: 3; fill-opacity: 1;"/><circle cx="820" cy="208.00077562200704" r="8" fill="#168000" stroke="#ffffff" style="stroke-width: 3; fill-opacity: 1;"/><circle cx="855.9999999999673" cy="172.00051708133796" r="8" fill="#168000" stroke="#ffffff" style="stroke-width: 3; fill-opacity: 1;"/><circle cx="891.9999999999345" cy="136.00025854066905" r="8" fill="#168000" stroke="#ffffff" style="stroke-width: 3; fill-opacity: 1;"/><circle cx="927.9999999999836" cy="100" r="8" fill="#168000" stroke="#ffffff" style="stroke-width: 3; fill-opacity: 1;"/><circle cx="423.9999999999509" cy="388.0020683253522" r="8" fill="#006080" stroke="#ffffff" style="stroke-width: 3; fill-opacity: 1;"/><circle cx="460" cy="388.0020683253522" r="8" fill="#006080" stroke="#ffffff" style="stroke-width: 3; fill-opacity: 1;"/><circle cx="495.99999999996726" cy="388.0020683253522" r="8" fill="#000000" stroke="#ffffff" style="stroke-width: 3; fill-opacity: 1;"/><circle cx="531.9999999999345" cy="388.0020683253522" r="8" fill="#006080" stroke="#ffffff" style="stroke-width: 3; fill-opacity: 1;"/><circle cx="567.9999999999836" cy="388.0020683253522" r="8" fill="#006080" stroke="#ffffff" style="stroke-width: 3; fill-opacity: 1;"/><circle cx="603.9999999999509" cy="388.0020683253522" r="8" fill="#006080" stroke="#ffffff" style="stroke-width: 3; fill-opacity: 1;"/><circle cx="640" cy="388.0020683253522" r="8" fill="#000000" stroke="#ffffff" style="stroke-width: 3; fill-opacity: 1;"/><circle cx="711.9999999999345" cy="460.0025854066903" r="8" fill="#006080" stroke="#ffffff" style="stroke-width: 3; fill-opacity: 1;"/><circle cx="747.9999999999836" cy="460.0025854066903" r="8" fill="#006080" stroke="#ffffff" style="stroke-width: 3; fill-opacity: 1;"/><circle cx="783.9999999999509" cy="460.0025854066903" r="8" fill="#006080" stroke="#ffffff" style="stroke-width: 3; fill-opacity: 1;"/><circle cx="820" cy="460.0025854066903" r="8" fill="#006080" stroke="#ffffff" style="stroke-width: 3; fill-opacity: 1;"/><circle cx="855.9999999999673" cy="460.0025854066903" r="8" fill="#006080" stroke="#ffffff" style="stroke-width: 3; fill-opacity: 1;"/><circle cx="891.9999999999345" cy="460.0025854066903" r="8" fill="#006080" stroke="#ffffff" style="stroke-width: 3; fill-opacity: 1;"/><circle cx="927.9999999999836" cy="460.0025854066903" r="8" fill="#006080" stroke="#ffffff" style="stroke-width: 3; fill-opacity: 1;"/><circle cx="963.9999999999509" cy="460.0025854066903" r="8" fill="#006080" stroke="#ffffff" style="stroke-width: 3; fill-opacity: 1;"/><circle cx="1000" cy="460.0025854066903" r="8" fill="#006080" stroke="#ffffff" style="stroke-width: 3; fill-opacity: 1;"/><circle cx="1035.9999999999673" cy="460.0025854066903" r="8" fill="#006080" stroke="#ffffff" style="stroke-width: 3; fill-opacity: 1;"/><circle cx="640" cy="100" r="8" fill="#ffbf00" stroke="#ffffff" style="stroke-width: 3; fill-opacity: 1;"/><circle cx="640" cy="136.00025854066905" r="8" fill="#ffbf00" stroke="#ffffff" style="stroke-width: 3; fill-opacity: 1;"/><circle cx="640" cy="172.00051708133796" r="8" fill="#ffbf00" stroke="#ffffff" style="stroke-width: 3; fill-opacity: 1;"/><circle cx="640" cy="208.00077562200704" r="8" fill="#ffbf00" stroke="#ffffff" style="stroke-width: 3; fill-opacity: 1;"/><circle cx="640" cy="244.0010341626761" r="8" fill="#ffbf00" stroke="#ffffff" style="stroke-width: 3; fill-opacity: 1;"/><circle cx="640" cy="280.00129270334514" r="8" fill="#ffbf00" stroke="#ffffff" style="stroke-width: 3; fill-opacity: 1;"/><circle cx="640" cy="316.0015512440141" r="8" fill="#ffbf00" stroke="#ffffff" style="stroke-width: 3; fill-opacity: 1;"/><circle cx="640" cy="352.00180978468313" r="8" fill="#ffbf00" stroke="#ffffff" style="stroke-width: 3; fill-opacity: 1;"/><circle cx="640" cy="388.0020683253522" r="8" fill="#000000" stroke="#ffffff" style="stroke-width: 3; fill-opacity: 1;"/><circle cx="640" cy="622.0037488397008" r="8" fill="#ffbf00" stroke="#ffffff" style="stroke-width: 3; fill-opacity: 1;"/><circle cx="640" cy="658.0040073803698" r="8" fill="#ffbf00" stroke="#ffffff" style="stroke-width: 3; fill-opacity: 1;"/><circle cx="640" cy="694.004265921039" r="8" fill="#ffbf00" stroke="#ffffff" style="stroke-width: 3; fill-opacity: 1;"/><circle cx="640" cy="730.004524461708" r="8" fill="#ffbf00" stroke="#ffffff" style="stroke-width: 3; fill-opacity: 1;"/><circle cx="640" cy="766.004783002377" r="8" fill="#ffbf00" stroke="#ffffff" style="stroke-width: 3; fill-opacity: 1;"/><circle cx="640" cy="802.005041543046" r="8" fill="#ffbf00" stroke="#ffffff" style="stroke-width: 3; fill-opacity: 1;"/><circle cx="640" cy="838.0053000837149" r="8" fill="#000000" stroke="#ffffff" style="stroke-width: 3; fill-opacity: 1;"/><text x="331.9999999999345" y="645.0038781100354" fill="#000000" transform="matrix(1,0,0,1,0,0)" style="font-size: 16px; font-family: Roboto, Arial, sans-serif; font-weight: 900; text-anchor: end; letter-spacing: 0em;">Keiri / 経里</text><text x="331.9999999999345" y="826.0051708133806" fill="#000000" transform="matrix(1,0,0,1,0,0)" style="font-size: 18px; font-family: Roboto, Arial, sans-serif; font-weight: 900; text-anchor: end; letter-spacing: 0em;">Mizotachi-Jinjamae / 溝立神社前</text><text x="655.9999999999673" y="879.0055586243841" fill="#000000" transform="matrix(1,0,0,1,0,0)" style="font-size: 16px; font-family: Roboto, Arial, sans-serif; font-weight: 900; text-anchor: end; letter-spacing: 0em;">Yukiji / 雪地</text><text x="691.9999999999345" y="915.0058171650531" fill="#000000" transform="matrix(1,0,0,1,0,0)" style="font-size: 16px; font-family: Roboto, Arial, sans-serif; font-weight: 900; text-anchor: end; letter-spacing: 0em;">Yukiji-Airport-West / 雪地空港西</text><text x="727.9999999999836" y="951.0060757057222" fill="#000000" transform="matrix(1,0,0,1,0,0)" style="font-size: 16px; font-family: Roboto, Arial, sans-serif; font-weight: 900; text-anchor: end; letter-spacing: 0em;">Yukiji-Airport-East / 雪地空港東</text><text x="151.99999999993452" y="1005.0064635167257" fill="#000000" transform="matrix(1,0,0,1,0,0)" style="font-size: 16px; font-family: Roboto, Arial, sans-serif; font-weight: 900; text-anchor: end; letter-spacing: 0em;">Itake / 伊武</text><text x="187.99999999998363" y="969.0062049760567" fill="#000000" transform="matrix(1,0,0,1,0,0)" style="font-size: 16px; font-family: Roboto, Arial, sans-serif; font-weight: 900; text-anchor: end; letter-spacing: 0em;">Syano / 斜乃</text><text x="223.9999999999509" y="933.0059464353875" fill="#000000" transform="matrix(1,0,0,1,0,0)" style="font-size: 16px; font-family: Roboto, Arial, sans-serif; font-weight: 900; text-anchor: end; letter-spacing: 0em;">Ryūrō / 琉廊</text><text x="260" y="897.0056878947184" fill="#000000" transform="matrix(1,0,0,1,0,0)" style="font-size: 16px; font-family: Roboto, Arial, sans-serif; font-weight: 900; text-anchor: end; letter-spacing: 0em;">Ryūrō-Kita / 琉廊北</text><text x="295.99999999996726" y="861.0054293540496" fill="#000000" transform="matrix(1,0,0,1,0,0)" style="font-size: 16px; font-family: Roboto, Arial, sans-serif; font-weight: 900; text-anchor: end; letter-spacing: 0em;">Shimo-Mizotachi / 下溝立</text><text x="695.9999999999673" y="357.00180978468313" fill="#000000" transform="matrix(1,0,0,1,0,0)" style="font-size: 16px; font-family: Roboto, Arial, sans-serif; font-weight: 900; text-anchor: start; letter-spacing: 0em;">興仰橋 / Kōgyō-Bashi</text><text x="731.9999999999345" y="321.0015512440141" fill="#000000" transform="matrix(1,0,0,1,0,0)" style="font-size: 16px; font-family: Roboto, Arial, sans-serif; font-weight: 900; text-anchor: start; letter-spacing: 0em;">上倉 / Kamikura</text><text x="767.9999999999836" y="285.00129270334514" fill="#000000" transform="matrix(1,0,0,1,0,0)" style="font-size: 16px; font-family: Roboto, Arial, sans-serif; font-weight: 900; text-anchor: start; letter-spacing: 0em;">徳河 / Tokuga</text><text x="803.9999999999509" y="249.0010341626761" fill="#000000" transform="matrix(1,0,0,1,0,0)" style="font-size: 16px; font-family: Roboto, Arial, sans-serif; font-weight: 900; text-anchor: start; letter-spacing: 0em;">岩飛 / Iwatobi</text><text x="840" y="213.00077562200704" fill="#000000" transform="matrix(1,0,0,1,0,0)" style="font-size: 16px; font-family: Roboto, Arial, sans-serif; font-weight: 900; text-anchor: start; letter-spacing: 0em;">北岩飛 / Kita-Iwatobi</text><text x="875.9999999999673" y="177.00051708133796" fill="#000000" transform="matrix(1,0,0,1,0,0)" style="font-size: 16px; font-family: Roboto, Arial, sans-serif; font-weight: 900; text-anchor: start; letter-spacing: 0em;">報向寺 / Mukōji</text><text x="911.9999999999345" y="141.00025854066905" fill="#000000" transform="matrix(1,0,0,1,0,0)" style="font-size: 16px; font-family: Roboto, Arial, sans-serif; font-weight: 900; text-anchor: start; letter-spacing: 0em;">国際城報堂大学前 / KokusaiGihōdōDaigakuMae</text><text x="947.9999999999836" y="105" fill="#000000" transform="matrix(1,0,0,1,0,0)" style="font-size: 16px; font-family: Roboto, Arial, sans-serif; font-weight: 900; text-anchor: start; letter-spacing: 0em;">城野中央 / Kino-Chūō</text><text x="423.9999999999509" y="408.0020683253522" fill="#000000" transform="matrix(1,0,0,1,0,0)" style="font-size: 16px; font-family: Roboto, Arial, sans-serif; font-weight: 900; text-anchor: start; writing-mode: tb; letter-spacing: -0.1em;">樟岐 / Shōki</text><text x="460" y="408.0020683253522" fill="#000000" transform="matrix(1,0,0,1,0,0)" style="font-size: 16px; font-family: Roboto, Arial, sans-serif; font-weight: 900; text-anchor: start; writing-mode: tb; letter-spacing: -0.1em;">東樟岐 / Higashi-Shōki</text><text x="495.99999999996726" y="408.0020683253522" fill="#000000" transform="matrix(1,0,0,1,0,0)" style="font-size: 18px; font-family: Roboto, Arial, sans-serif; font-weight: 900; text-anchor: start; writing-mode: tb; letter-spacing: -0.1em;">理操研 / Risōken</text><text x="531.9999999999345" y="408.0020683253522" fill="#000000" transform="matrix(1,0,0,1,0,0)" style="font-size: 16px; font-family: Roboto, Arial, sans-serif; font-weight: 900; text-anchor: start; writing-mode: tb; letter-spacing: -0.1em;">雉堂 / Kizidō</text><text x="567.9999999999836" y="408.0020683253522" fill="#000000" transform="matrix(1,0,0,1,0,0)" style="font-size: 16px; font-family: Roboto, Arial, sans-serif; font-weight: 900; text-anchor: start; writing-mode: tb; letter-spacing: -0.1em;">究名 / Kyūna</text><text x="603.9999999999509" y="408.0020683253522" fill="#000000" transform="matrix(1,0,0,1,0,0)" style="font-size: 16px; font-family: Roboto, Arial, sans-serif; font-weight: 900; text-anchor: start; writing-mode: tb; letter-spacing: -0.1em;">風加 / Fūka</text><text x="711.9999999999345" y="480.0025854066903" fill="#000000" transform="matrix(1,0,0,1,0,0)" style="font-size: 16px; font-family: Roboto, Arial, sans-serif; font-weight: 900; text-anchor: start; writing-mode: tb; letter-spacing: -0.1em;">保柚 / Hoyū</text><text x="747.9999999999836" y="480.0025854066903" fill="#000000" transform="matrix(1,0,0,1,0,0)" style="font-size: 16px; font-family: Roboto, Arial, sans-serif; font-weight: 900; text-anchor: start; writing-mode: tb; letter-spacing: -0.1em;">込沢町 / Komesawachō</text><text x="783.9999999999509" y="480.0025854066903" fill="#000000" transform="matrix(1,0,0,1,0,0)" style="font-size: 16px; font-family: Roboto, Arial, sans-serif; font-weight: 900; text-anchor: start; writing-mode: tb; letter-spacing: -0.1em;">栖実野 / Sumino</text><text x="820" y="480.0025854066903" fill="#000000" transform="matrix(1,0,0,1,0,0)" style="font-size: 16px; font-family: Roboto, Arial, sans-serif; font-weight: 900; text-anchor: start; writing-mode: tb; letter-spacing: -0.1em;">色友 / Shikiyū</text><text x="855.9999999999673" y="480.0025854066903" fill="#000000" transform="matrix(1,0,0,1,0,0)" style="font-size: 16px; font-family: Roboto, Arial, sans-serif; font-weight: 900; text-anchor: start; writing-mode: tb; letter-spacing: -0.1em;">東色友 / Higashi-Shikiyū</text><text x="891.9999999999345" y="480.0025854066903" fill="#000000" transform="matrix(1,0,0,1,0,0)" style="font-size: 16px; font-family: Roboto, Arial, sans-serif; font-weight: 900; text-anchor: start; writing-mode: tb; letter-spacing: -0.1em;">芝 / Shiba</text><text x="927.9999999999836" y="480.0025854066903" fill="#000000" transform="matrix(1,0,0,1,0,0)" style="font-size: 16px; font-family: Roboto, Arial, sans-serif; font-weight: 900; text-anchor: start; writing-mode: tb; letter-spacing: -0.1em;">篠大前 / Shinodaimae</text><text x="963.9999999999509" y="480.0025854066903" fill="#000000" transform="matrix(1,0,0,1,0,0)" style="font-size: 16px; font-family: Roboto, Arial, sans-serif; font-weight: 900; text-anchor: start; writing-mode: tb; letter-spacing: -0.1em;">篠美音 / Shinomine</text><text x="1000" y="480.0025854066903" fill="#000000" transform="matrix(1,0,0,1,0,0)" style="font-size: 16px; font-family: Roboto, Arial, sans-serif; font-weight: 900; text-anchor: start; writing-mode: tb; letter-spacing: -0.1em;">篠野目 / Shinonome</text><text x="1035.9999999999673" y="480.0025854066903" fill="#000000" transform="matrix(1,0,0,1,0,0)" style="font-size: 16px; font-family: Roboto, Arial, sans-serif; font-weight: 900; text-anchor: start; writing-mode: tb; letter-spacing: -0.1em;">発複 / Happuku</text><text x="620" y="105" fill="#000000" transform="matrix(1,0,0,1,0,0)" style="font-size: 16px; font-family: Roboto, Arial, sans-serif; font-weight: 900; text-anchor: end; letter-spacing: 0em;">Sakiyarichō / 先槍町</text><text x="620" y="141.00025854066905" fill="#000000" transform="matrix(1,0,0,1,0,0)" style="font-size: 16px; font-family: Roboto, Arial, sans-serif; font-weight: 900; text-anchor: end; letter-spacing: 0em;">Kita-Yarihara / 北槍原</text><text x="620" y="177.00051708133796" fill="#000000" transform="matrix(1,0,0,1,0,0)" style="font-size: 16px; font-family: Roboto, Arial, sans-serif; font-weight: 900; text-anchor: end; letter-spacing: 0em;">Yarihara / 槍原</text><text x="620" y="213.00077562200704" fill="#000000" transform="matrix(1,0,0,1,0,0)" style="font-size: 16px; font-family: Roboto, Arial, sans-serif; font-weight: 900; text-anchor: end; letter-spacing: 0em;">Tarui-Shokubutsuen / 垂井植物園</text><text x="620" y="249.0010341626761" fill="#000000" transform="matrix(1,0,0,1,0,0)" style="font-size: 16px; font-family: Roboto, Arial, sans-serif; font-weight: 900; text-anchor: end; letter-spacing: 0em;">Asano / 麻佐乃</text><text x="620" y="285.00129270334514" fill="#000000" transform="matrix(1,0,0,1,0,0)" style="font-size: 16px; font-family: Roboto, Arial, sans-serif; font-weight: 900; text-anchor: end; letter-spacing: 0em;">Tokoya / 床谷</text><text x="620" y="321.0015512440141" fill="#000000" transform="matrix(1,0,0,1,0,0)" style="font-size: 16px; font-family: Roboto, Arial, sans-serif; font-weight: 900; text-anchor: end; letter-spacing: 0em;">Minami-Tokoya / 南床谷</text><text x="620" y="357.00180978468313" fill="#000000" transform="matrix(1,0,0,1,0,0)" style="font-size: 16px; font-family: Roboto, Arial, sans-serif; font-weight: 900; text-anchor: end; letter-spacing: 0em;">Suzuhara / 素津原</text><text x="660" y="395.0020683253522" fill="#000000" transform="matrix(1,0,0,1,0,0)" style="font-size: 20px; font-family: Roboto, Arial, sans-serif; font-weight: 900; text-anchor: start; letter-spacing: 0em;">興仰 / Kōgyō</text><text x="620" y="627.0037488397008" fill="#000000" transform="matrix(1,0,0,1,0,0)" style="font-size: 16px; font-family: Roboto, Arial, sans-serif; font-weight: 900; text-anchor: end; letter-spacing: 0em;">Nishi-Kōgyō / 西興仰</text><text x="620" y="663.0040073803698" fill="#000000" transform="matrix(1,0,0,1,0,0)" style="font-size: 16px; font-family: Roboto, Arial, sans-serif; font-weight: 900; text-anchor: end; letter-spacing: 0em;">Sennomaru-Bashi / 千の丸橋</text><text x="620" y="699.004265921039" fill="#000000" transform="matrix(1,0,0,1,0,0)" style="font-size: 16px; font-family: Roboto, Arial, sans-serif; font-weight: 900; text-anchor: end; letter-spacing: 0em;">Hokuto / 北斗</text><text x="620" y="735.004524461708" fill="#000000" transform="matrix(1,0,0,1,0,0)" style="font-size: 16px; font-family: Roboto, Arial, sans-serif; font-weight: 900; text-anchor: end; letter-spacing: 0em;">Rino / 理野</text><text x="620" y="771.004783002377" fill="#000000" transform="matrix(1,0,0,1,0,0)" style="font-size: 16px; font-family: Roboto, Arial, sans-serif; font-weight: 900; text-anchor: end; letter-spacing: 0em;">Rino-Sanchōme / 理野三丁目</text><text x="620" y="807.005041543046" fill="#000000" transform="matrix(1,0,0,1,0,0)" style="font-size: 16px; font-family: Roboto, Arial, sans-serif; font-weight: 900; text-anchor: end; letter-spacing: 0em;">Kamino / 紙之</text><text x="620" y="844.0053000837149" fill="#000000" transform="matrix(1,0,0,1,0,0)" style="font-size: 18px; font-family: Roboto, Arial, sans-serif; font-weight: 900; text-anchor: end; letter-spacing: 0em;">Fuseba / 伏葉</text></svg>