<svg height="858.0064981888454" version="1.1" width="848.0000000000041" xmlns="http://www.w3.org/2000/svg" id="svgSvg" viewBox="0 0 848.0000000000041 858.0064981888454" style="width: 1366px; height: 1382.14px;"><desc>Created with Snap</desc><defs/><path d="M8,5 C10,2 10,2 5.67,3.6  C1.8,4.9 1.8,5.1 5.67,6.4 C10,8 10,8 8,5 z" fill="#ffffff" style=""/><path d="M2,5 C0,2 0,2 4.33,3.6  C8.2,4.9 8.2,5.1 4.33,6.4 C0,8 0,8 2,5 z" fill="#ffffff" style=""/><polyline points="748.0000000000041,190.0010480949751,748.0000000000041,406.0035635229153,748.0000000000041,658.0064981888454,100,658.0064981888454,100,154.00062885698503" fill="none" stroke="#ffffff" style="stroke-opacity: 0.9; stroke-width: 0; stroke-linecap: round; stroke-linejoin: round; marker-start: none; marker-end: none;"/><path d="M8,5 C10,2 10,2 5.67,3.6  C1.8,4.9 1.8,5.1 5.67,6.4 C10,8 10,8 8,5 z" fill="#ffffff" style=""/><path d="M2,5 C0,2 0,2 4.33,3.6  C8.2,4.9 8.2,5.1 4.33,6.4 C0,8 0,8 2,5 z" fill="#ffffff" style=""/><polyline points="379.0000000000123,109.00010480949747,379.0000000000123,145.00052404748754" fill="none" stroke="#ffffff" style="stroke-opacity: 0.9; stroke-width: 6; stroke-linecap: round; stroke-linejoin: round; marker-start: none; marker-end: none;"/><path d="M8,5 C10,2 10,2 5.67,3.6  C1.8,4.9 1.8,5.1 5.67,6.4 C10,8 10,8 8,5 z" fill="#000000" style=""/><path d="M2,5 C0,2 0,2 4.33,3.6  C8.2,4.9 8.2,5.1 4.33,6.4 C0,8 0,8 2,5 z" fill="#000000" style=""/><polyline points="370,154.00062885698503,298.0000000000041,100" fill="none" stroke="#000000" style="stroke-opacity: 0.9; stroke-width: 6; stroke-linecap: round; stroke-linejoin: round; marker-start: none; marker-end: none;"/><path d="M8,5 C10,2 10,2 5.67,3.6  C1.8,4.9 1.8,5.1 5.67,6.4 C10,8 10,8 8,5 z" fill="#0e670e" style=""/><path d="M2,5 C0,2 0,2 4.33,3.6  C8.2,4.9 8.2,5.1 4.33,6.4 C0,8 0,8 2,5 z" fill="#0e670e" style=""/><polyline points="306.9999999999959,127.00031442849252,298.0000000000041,154.00062885698503,351.9999999999959,154.00062885698503" fill="none" stroke="#0e670e" style="stroke-opacity: 0.9; stroke-width: 6; stroke-linecap: round; stroke-linejoin: round; marker-start: none; marker-end: none;"/><path d="M8,5 C10,2 10,2 5.67,3.6  C1.8,4.9 1.8,5.1 5.67,6.4 C10,8 10,8 8,5 z" fill="#0e670e" style=""/><path d="M2,5 C0,2 0,2 4.33,3.6  C8.2,4.9 8.2,5.1 4.33,6.4 C0,8 0,8 2,5 z" fill="#0e670e" style=""/><polyline points="316.0000000000082,100,370,100,361.0000000000082,127.00031442849252" fill="none" stroke="#0e670e" style="stroke-opacity: 0.9; stroke-width: 6; stroke-linecap: round; stroke-linejoin: round; marker-start: none; marker-end: none;"/><path d="M8,5 C10,2 10,2 5.67,3.6  C1.8,4.9 1.8,5.1 5.67,6.4 C10,8 10,8 8,5 z" fill="#11c561" style=""/><path d="M2,5 C0,2 0,2 4.33,3.6  C8.2,4.9 8.2,5.1 4.33,6.4 C0,8 0,8 2,5 z" fill="#11c561" style=""/><polyline points="559.0000000000123,370.0031442849252,559.0000000000123,343.0028298564327,559.0000000000123,316.0025154279402,559.0000000000123,289.0022009994476,559.0000000000123,262.0018865709551,559.0000000000123,235.0015721424626,559.0000000000123,208.00125771397006,559.0000000000123,181.00094328547755" fill="none" stroke="#11c561" style="stroke-opacity: 0.9; stroke-width: 6; stroke-linecap: round; stroke-linejoin: round; marker-start: none; marker-end: none;"/><path d="M8,5 C10,2 10,2 5.67,3.6  C1.8,4.9 1.8,5.1 5.67,6.4 C10,8 10,8 8,5 z" fill="#bb2ebd" style=""/><path d="M2,5 C0,2 0,2 4.33,3.6  C8.2,4.9 8.2,5.1 4.33,6.4 C0,8 0,8 2,5 z" fill="#bb2ebd" style=""/><polyline points="613.0000000000041,370.0031442849252,586.0000000000082,370.0031442849252,559.0000000000123,370.0031442849252,531.9999999999959,370.0031442849252,505,370.0031442849252,478.0000000000041,370.0031442849252,451.0000000000082,370.0031442849252,424.0000000000123,370.0031442849252,396.9999999999959,370.0031442849252,370,370.0031442849252,343.0000000000041,370.0031442849252,343.0000000000041,397.0034587134178" fill="none" stroke="#bb2ebd" style="stroke-opacity: 0.9; stroke-width: 6; stroke-linecap: round; stroke-linejoin: round; marker-start: none; marker-end: none;"/><path d="M8,5 C10,2 10,2 5.67,3.6  C1.8,4.9 1.8,5.1 5.67,6.4 C10,8 10,8 8,5 z" fill="#000080" style=""/><path d="M2,5 C0,2 0,2 4.33,3.6  C8.2,4.9 8.2,5.1 4.33,6.4 C0,8 0,8 2,5 z" fill="#000080" style=""/><polyline points="343.0000000000041,208.00125771397006,343.0000000000041,235.0015721424626,343.0000000000041,262.0018865709551,343.0000000000041,289.0022009994476,343.0000000000041,316.0025154279402,343.0000000000041,343.0028298564327,343.0000000000041,370.0031442849252" fill="none" stroke="#000080" style="stroke-opacity: 0.9; stroke-width: 6; stroke-linecap: round; stroke-linejoin: round; marker-start: none; marker-end: none;"/><circle cx="379.0000000000123" cy="109.00010480949747" r="2" fill="#ffffff" stroke="#ffffff" style="stroke-width: 5; fill-opacity: 1;"/><circle cx="379.0000000000123" cy="145.00052404748754" r="2" fill="#ffffff" stroke="#ffffff" style="stroke-width: 5; fill-opacity: 1;"/><rect x="551.0000000000123" y="362.0031442849252" width="16" height="16" fill="#ffffff" stroke="#000000" transform="matrix(1,0,0,1,0,0)" style="stroke-width: 5; fill-opacity: 1;"/><rect x="551.0000000000123" y="335.0028298564327" width="16" height="16" fill="#ffffff" stroke="#256f3e" transform="matrix(1,0,0,1,0,0)" style="stroke-width: 5; fill-opacity: 1;"/><rect x="551.0000000000123" y="308.0025154279402" width="16" height="16" fill="#ffffff" stroke="#256f3e" transform="matrix(1,0,0,1,0,0)" style="stroke-width: 5; fill-opacity: 1;"/><rect x="551.0000000000123" y="281.0022009994476" width="16" height="16" fill="#ffffff" stroke="#256f3e" transform="matrix(1,0,0,1,0,0)" style="stroke-width: 5; fill-opacity: 1;"/><rect x="551.0000000000123" y="254.0018865709551" width="16" height="16" fill="#ffffff" stroke="#256f3e" transform="matrix(1,0,0,1,0,0)" style="stroke-width: 5; fill-opacity: 1;"/><rect x="551.0000000000123" y="227.0015721424626" width="16" height="16" fill="#ffffff" stroke="#256f3e" transform="matrix(1,0,0,1,0,0)" style="stroke-width: 5; fill-opacity: 1;"/><rect x="551.0000000000123" y="200.00125771397006" width="16" height="16" fill="#ffffff" stroke="#256f3e" transform="matrix(1,0,0,1,0,0)" style="stroke-width: 5; fill-opacity: 1;"/><rect x="551.0000000000123" y="173.00094328547755" width="16" height="16" fill="#ffffff" stroke="#256f3e" transform="matrix(1,0,0,1,0,0)" style="stroke-width: 5; fill-opacity: 1;"/><rect x="605.0000000000041" y="362.0031442849252" width="16" height="16" fill="#ffffff" stroke="#c73d85" transform="matrix(1,0,0,1,0,0)" style="stroke-width: 5; fill-opacity: 1;"/><rect x="578.0000000000082" y="362.0031442849252" width="16" height="16" fill="#ffffff" stroke="#c73d85" transform="matrix(1,0,0,1,0,0)" style="stroke-width: 5; fill-opacity: 1;"/><rect x="551.0000000000123" y="362.0031442849252" width="16" height="16" fill="#ffffff" stroke="#000000" transform="matrix(1,0,0,1,0,0)" style="stroke-width: 5; fill-opacity: 1;"/><rect x="523.9999999999959" y="362.0031442849252" width="16" height="16" fill="#ffffff" stroke="#c73d85" transform="matrix(1,0,0,1,0,0)" style="stroke-width: 5; fill-opacity: 1;"/><rect x="497" y="362.0031442849252" width="16" height="16" fill="#ffffff" stroke="#c73d85" transform="matrix(1,0,0,1,0,0)" style="stroke-width: 5; fill-opacity: 1;"/><rect x="470.0000000000041" y="362.0031442849252" width="16" height="16" fill="#ffffff" stroke="#c73d85" transform="matrix(1,0,0,1,0,0)" style="stroke-width: 5; fill-opacity: 1;"/><rect x="443.0000000000082" y="362.0031442849252" width="16" height="16" fill="#ffffff" stroke="#c73d85" transform="matrix(1,0,0,1,0,0)" style="stroke-width: 5; fill-opacity: 1;"/><rect x="416.0000000000123" y="362.0031442849252" width="16" height="16" fill="#ffffff" stroke="#c73d85" transform="matrix(1,0,0,1,0,0)" style="stroke-width: 5; fill-opacity: 1;"/><rect x="388.9999999999959" y="362.0031442849252" width="16" height="16" fill="#ffffff" stroke="#c73d85" transform="matrix(1,0,0,1,0,0)" style="stroke-width: 5; fill-opacity: 1;"/><rect x="362" y="362.0031442849252" width="16" height="16" fill="#ffffff" stroke="#c73d85" transform="matrix(1,0,0,1,0,0)" style="stroke-width: 5; fill-opacity: 1;"/><rect x="335.0000000000041" y="362.0031442849252" width="16" height="16" fill="#ffffff" stroke="#000000" transform="matrix(1,0,0,1,0,0)" style="stroke-width: 5; fill-opacity: 1;"/><rect x="335.0000000000041" y="389.0034587134178" width="16" height="16" fill="#ffffff" stroke="#c73d85" transform="matrix(1,0,0,1,0,0)" style="stroke-width: 5; fill-opacity: 1;"/><rect x="335.0000000000041" y="200.00125771397006" width="16" height="16" fill="#ffffff" stroke="#7411ee" transform="matrix(1,0,0,1,0,0)" style="stroke-width: 5; fill-opacity: 1;"/><rect x="335.0000000000041" y="227.0015721424626" width="16" height="16" fill="#ffffff" stroke="#7411ee" transform="matrix(1,0,0,1,0,0)" style="stroke-width: 5; fill-opacity: 1;"/><rect x="335.0000000000041" y="254.0018865709551" width="16" height="16" fill="#ffffff" stroke="#7411ee" transform="matrix(1,0,0,1,0,0)" style="stroke-width: 5; fill-opacity: 1;"/><rect x="335.0000000000041" y="281.0022009994476" width="16" height="16" fill="#ffffff" stroke="#7411ee" transform="matrix(1,0,0,1,0,0)" style="stroke-width: 5; fill-opacity: 1;"/><rect x="335.0000000000041" y="308.0025154279402" width="16" height="16" fill="#ffffff" stroke="#7411ee" transform="matrix(1,0,0,1,0,0)" style="stroke-width: 5; fill-opacity: 1;"/><rect x="335.0000000000041" y="335.0028298564327" width="16" height="16" fill="#ffffff" stroke="#7411ee" transform="matrix(1,0,0,1,0,0)" style="stroke-width: 5; fill-opacity: 1;"/><rect x="335.0000000000041" y="362.0031442849252" width="16" height="16" fill="#ffffff" stroke="#000000" transform="matrix(1,0,0,1,0,0)" style="stroke-width: 5; fill-opacity: 1;"/><text x="399.0000000000123" y="124.00010480949747" fill="#000000" transform="matrix(1,0,0,1,0,0)" style="font-size: 36px; font-family: Roboto, Arial, sans-serif; font-weight: 900; text-anchor: start; letter-spacing: 0em;">宿川高速鉄道</text><text x="399.0000000000123" y="151.00052404748754" fill="#000000" transform="matrix(1,0,0,1,0,0)" style="font-size: 18px; font-family: Roboto, Arial, sans-serif; font-weight: 900; text-anchor: start; letter-spacing: 0em;">YADOKAWA RAPID RAILWAY</text><text x="579.0000000000123" y="349.0028298564327" fill="#000000" transform="matrix(1,0,0,1,0,0)" style="font-size: 18px; font-family: Roboto, Arial, sans-serif; font-weight: 900; text-anchor: start; letter-spacing: 0em;">矢場町〔やばちょう〕</text><text x="579.0000000000123" y="322.0025154279402" fill="#000000" transform="matrix(1,0,0,1,0,0)" style="font-size: 18px; font-family: Roboto, Arial, sans-serif; font-weight: 900; text-anchor: start; letter-spacing: 0em;">吾妻〔あずま〕</text><text x="579.0000000000123" y="295.0022009994476" fill="#000000" transform="matrix(1,0,0,1,0,0)" style="font-size: 18px; font-family: Roboto, Arial, sans-serif; font-weight: 900; text-anchor: start; letter-spacing: 0em;">宏城市〔ひろぎし〕</text><text x="579.0000000000123" y="268.0018865709551" fill="#000000" transform="matrix(1,0,0,1,0,0)" style="font-size: 18px; font-family: Roboto, Arial, sans-serif; font-weight: 900; text-anchor: start; letter-spacing: 0em;">宙蔭〔そらかげ〕</text><text x="579.0000000000123" y="241.0015721424626" fill="#000000" transform="matrix(1,0,0,1,0,0)" style="font-size: 18px; font-family: Roboto, Arial, sans-serif; font-weight: 900; text-anchor: start; letter-spacing: 0em;">菱凰〔ひしおう〕</text><text x="579.0000000000123" y="214.00125771397006" fill="#000000" transform="matrix(1,0,0,1,0,0)" style="font-size: 18px; font-family: Roboto, Arial, sans-serif; font-weight: 900; text-anchor: start; letter-spacing: 0em;">鼓樹〔こき〕</text><text x="579.0000000000123" y="187.00094328547755" fill="#000000" transform="matrix(1,0,0,1,0,0)" style="font-size: 18px; font-family: Roboto, Arial, sans-serif; font-weight: 900; text-anchor: start; letter-spacing: 0em;">岳博〔たかはく〕</text><text x="613.0000000000041" y="390.0031442849252" fill="#000000" transform="matrix(1,0,0,1,0,0)" style="font-size: 18px; font-family: Roboto, Arial, sans-serif; font-weight: 900; text-anchor: start; writing-mode: tb; letter-spacing: -0.1em;">栖実野〔すみの〕</text><text x="586.0000000000082" y="390.0031442849252" fill="#000000" transform="matrix(1,0,0,1,0,0)" style="font-size: 18px; font-family: Roboto, Arial, sans-serif; font-weight: 900; text-anchor: start; writing-mode: tb; letter-spacing: -0.1em;">透操〔とうそう〕</text><text x="559.0000000000123" y="390.0031442849252" fill="#000000" transform="matrix(1,0,0,1,0,0)" style="font-size: 18px; font-family: Roboto, Arial, sans-serif; font-weight: 900; text-anchor: start; writing-mode: tb; letter-spacing: -0.1em;">宿川石蔵〔やどかわいしくら〕</text><text x="531.9999999999959" y="390.0031442849252" fill="#000000" transform="matrix(1,0,0,1,0,0)" style="font-size: 18px; font-family: Roboto, Arial, sans-serif; font-weight: 900; text-anchor: start; writing-mode: tb; letter-spacing: -0.1em;">岩白〔いわしろ〕</text><text x="505" y="390.0031442849252" fill="#000000" transform="matrix(1,0,0,1,0,0)" style="font-size: 18px; font-family: Roboto, Arial, sans-serif; font-weight: 900; text-anchor: start; writing-mode: tb; letter-spacing: -0.1em;">幹田奈〔みきたな〕</text><text x="478.0000000000041" y="390.0031442849252" fill="#000000" transform="matrix(1,0,0,1,0,0)" style="font-size: 18px; font-family: Roboto, Arial, sans-serif; font-weight: 900; text-anchor: start; writing-mode: tb; letter-spacing: -0.1em;">咎野〔とがの〕</text><text x="451.0000000000082" y="390.0031442849252" fill="#000000" transform="matrix(1,0,0,1,0,0)" style="font-size: 18px; font-family: Roboto, Arial, sans-serif; font-weight: 900; text-anchor: start; writing-mode: tb; letter-spacing: -0.1em;">星瑳本町〔せいさほんちょう〕</text><text x="424.0000000000123" y="390.0031442849252" fill="#000000" transform="matrix(1,0,0,1,0,0)" style="font-size: 18px; font-family: Roboto, Arial, sans-serif; font-weight: 900; text-anchor: start; writing-mode: tb; letter-spacing: -0.1em;">星瑳〔せいさ〕</text><text x="396.9999999999959" y="390.0031442849252" fill="#000000" transform="matrix(1,0,0,1,0,0)" style="font-size: 18px; font-family: Roboto, Arial, sans-serif; font-weight: 900; text-anchor: start; writing-mode: tb; letter-spacing: -0.1em;">悦原〔えつはら〕</text><text x="370" y="390.0031442849252" fill="#000000" transform="matrix(1,0,0,1,0,0)" style="font-size: 18px; font-family: Roboto, Arial, sans-serif; font-weight: 900; text-anchor: start; writing-mode: tb; letter-spacing: -0.1em;">都立宿川大〔とりつやどかわだい〕</text><text x="323.0000000000041" y="403.0034587134178" fill="#000000" transform="matrix(1,0,0,1,0,0)" style="font-size: 18px; font-family: Roboto, Arial, sans-serif; font-weight: 900; text-anchor: end; letter-spacing: 0em;">南宿川〔みなみやどかわ〕</text><text x="323.0000000000041" y="214.00125771397006" fill="#000000" transform="matrix(1,0,0,1,0,0)" style="font-size: 18px; font-family: Roboto, Arial, sans-serif; font-weight: 900; text-anchor: end; letter-spacing: 0em;">朋羚〔なかも〕</text><text x="323.0000000000041" y="241.0015721424626" fill="#000000" transform="matrix(1,0,0,1,0,0)" style="font-size: 18px; font-family: Roboto, Arial, sans-serif; font-weight: 900; text-anchor: end; letter-spacing: 0em;">朋里〔なかざと〕</text><text x="323.0000000000041" y="268.0018865709551" fill="#000000" transform="matrix(1,0,0,1,0,0)" style="font-size: 18px; font-family: Roboto, Arial, sans-serif; font-weight: 900; text-anchor: end; letter-spacing: 0em;">羽陽坂〔うようざか〕</text><text x="323.0000000000041" y="295.0022009994476" fill="#000000" transform="matrix(1,0,0,1,0,0)" style="font-size: 18px; font-family: Roboto, Arial, sans-serif; font-weight: 900; text-anchor: end; letter-spacing: 0em;">錦動町〔きんどうちょう〕</text><text x="323.0000000000041" y="322.0025154279402" fill="#000000" transform="matrix(1,0,0,1,0,0)" style="font-size: 18px; font-family: Roboto, Arial, sans-serif; font-weight: 900; text-anchor: end; letter-spacing: 0em;">森田〔もりた〕</text><text x="323.0000000000041" y="349.0028298564327" fill="#000000" transform="matrix(1,0,0,1,0,0)" style="font-size: 18px; font-family: Roboto, Arial, sans-serif; font-weight: 900; text-anchor: end; letter-spacing: 0em;">宿川北〔やどかわきた〕</text><text x="323.0000000000041" y="376.0031442849252" fill="#000000" transform="matrix(1,0,0,1,0,0)" style="font-size: 18px; font-family: Roboto, Arial, sans-serif; font-weight: 900; text-anchor: end; letter-spacing: 0em;">宿川〔やどかわ〕</text></svg>